<?xml version="1.0" encoding="UTF-8" standalone="no"?>
<!-- Created with Inkscape (http://www.inkscape.org/) -->

<svg
   width="99.650452mm"
   height="94.381187mm"
   viewBox="0 0 99.65045 94.381188"
   version="1.1"
   id="svg1"
   xml:space="preserve"
   xmlns="http://www.w3.org/2000/svg"
   xmlns:svg="http://www.w3.org/2000/svg"><defs
     id="defs1" /><g
     id="layer1"
     transform="translate(-224.18825,19.240668)"><path
       style="fill:#000000;stroke-width:0.419898"
       d="m 242.66122,74.557227 c -0.84836,-1.126516 -1.68074,-2.546634 -1.81105,-3.089819 -0.0998,-0.416115 -0.1009,-0.676712 -0.004,-1.078811 0.12643,-0.527019 0.2102,-0.641634 2.61702,-3.580466 4.54121,-5.544995 7.04986,-8.598253 9.72095,-11.83122 1.06932,-1.294261 2.46915,-2.998486 3.11074,-3.787165 0.6416,-0.788682 1.39723,-1.659212 1.67918,-1.934513 0.4391,-0.428734 0.61151,-0.745215 1.20173,-2.205894 0.37899,-0.93794 0.66758,-1.726833 0.64132,-1.753096 -0.0513,-0.05132 -4.78485,1.897463 -11.68794,4.811908 -1.74142,0.735217 -17.3833,6.979334 -20.66425,8.24901 -1.28319,0.496572 -2.4479,0.951373 -2.58826,1.010675 -0.43983,0.185822 -0.68921,0.134334 -0.68848,-0.142152 0.002,-0.731489 0.9857,-6.008681 1.24409,-6.673519 0.13418,-0.345248 1.14939,-1.284255 4.48189,-4.145486 2.49387,-2.141199 8.34351,-7.141559 8.95055,-7.65106 0.21841,-0.183312 0.76744,-0.652307 1.22009,-1.042212 0.45265,-0.389905 1.27294,-1.09656 1.82288,-1.570346 2.18956,-1.886368 8.09457,-6.924435 9.5037,-8.108412 3.48688,-2.929744 3.67083,-3.111276 4.10922,-4.055082 0.22706,-0.488832 1.30029,-2.713573 2.38496,-4.943868 1.08467,-2.230295 2.26044,-4.655011 2.61282,-5.388259 0.35239,-0.733248 1.07913,-2.233073 1.61499,-3.332944 0.86343,-1.772232 0.98288,-2.092115 1.04986,-2.8114064 0.0432,-0.463968 0.14382,-0.879875 0.23488,-0.970935 0.23731,-0.237312 4.35268,-0.37533 4.49727,-0.150826 0.0552,0.08571 0.12535,0.605777 0.15591,1.155714 l 0.0555,0.9998834 0.36184,0.03487 c 0.22706,0.02188 0.37877,-0.0195 0.40732,-0.111098 0.025,-0.08028 0.0996,-2.4956944 0.16568,-5.3675814 0.0661,-2.8718871 0.19935,-6.0965106 0.29608,-7.1658283 0.0967,-1.0693219 0.15116,-2.2691818 0.12092,-2.6663554 -0.0403,-0.5293325 -0.0129,-0.7691323 0.10262,-0.8981461 0.0867,-0.096803 0.25729,-0.7217299 0.37915,-1.3887261 0.51281,-2.8067527 0.93091,-4.5403797 1.51034,-6.2626227 0.83633,-2.485807 2.21237,-5.778025 2.48559,-5.946887 0.1546,-0.09555 0.73874,1.12521 1.75457,3.666788 1.09798,2.747098 1.44465,3.943842 2.08002,7.1803485 0.27455,1.3985181 0.57822,2.6633825 0.67481,2.8108088 0.13508,0.2061618 0.14775,0.3201516 0.0548,0.4937377 -0.0891,0.1664771 -0.0623,0.9335939 0.10227,2.9237742 0.20503,2.48007076 0.44437,8.6821904 0.44631,11.5652004 l 8.4e-4,1.2013444 0.36107,-0.03481 0.36106,-0.03481 0.0861,-0.9998834 c 0.0473,-0.549936 0.10825,-1.062376 0.13539,-1.138756 0.0359,-0.101149 0.40488,-0.136473 1.35823,-0.130039 1.95281,0.01318 3.13346,0.131579 3.25677,0.326596 0.0572,0.09048 0.10479,0.469268 0.10573,0.841747 0.002,0.6537774 0.0779,0.8327194 2.20318,5.1660644 1.21082,2.468855 2.7226,5.563702 3.35952,6.877437 0.63692,1.313736 1.48354,3.038535 1.88137,3.832886 l 0.72335,1.444276 2.78645,2.38861 c 3.49822,2.99875 5.61576,4.80902 9.48676,8.110164 13.95701,11.902398 17.15611,14.693852 17.37949,15.164894 0.17531,0.369704 0.85892,3.52381 1.11966,5.166066 0.2193,1.381231 0.21939,1.888666 3.3e-4,1.888666 -0.0925,0 -2.50469,-0.929668 -5.36048,-2.06593 -10.26526,-4.08434 -16.9069,-6.748844 -19.69066,-7.899525 -5.41109,-2.236702 -6.06677,-2.505136 -8.2626,-3.382691 -1.21426,-0.485275 -2.22194,-0.867592 -2.23928,-0.849592 -0.0173,0.018 0.29365,0.807636 0.6911,1.754748 0.66944,1.595278 0.7703,1.766994 1.37048,2.333061 0.60865,0.574061 1.61869,1.776212 7.22374,8.597744 1.24959,1.520797 2.91392,3.54556 3.69849,4.499473 0.78457,0.953913 1.71268,2.084342 2.06246,2.512072 0.34978,0.427725 1.34412,1.640548 2.20965,2.695156 0.86552,1.054609 1.64971,2.064507 1.74264,2.244219 0.26357,0.509686 0.21498,1.511937 -0.10682,2.203157 -0.31562,0.67796 -1.48527,2.419947 -1.86334,2.775126 l -0.25678,0.241223 -5.99565,-1.510841 c -3.2976,-0.830962 -6.82037,-1.719954 -7.82837,-1.975538 l -1.83273,-0.464697 -0.0772,-0.548648 c -0.0424,-0.301752 -0.1616,-1.111077 -0.26479,-1.798497 l -0.18762,-1.249853 h -0.42996 c -0.23649,0 -0.42997,0.01843 -0.42997,0.04102 0,0.247312 -1.60964,4.506557 -1.75988,4.6568 -0.51113,0.51113 -4.46534,0.540385 -4.85046,0.0359 -0.0611,-0.08004 -0.43075,-1.277861 -0.82144,-2.661808 -0.39068,-1.383952 -0.74064,-2.51515 -0.77768,-2.513773 -0.037,0.0013 -0.3301,0.401331 -0.65123,0.888787 l -0.58387,0.886284 h -1.20911 -1.2091 l -0.0643,0.361066 c -0.0354,0.198587 -0.0984,1.010994 -0.14014,1.805345 l -0.0758,1.444275 -0.4555,0.509387 c -0.25052,0.28016 -0.54946,0.77166 -0.66431,1.092219 -0.3428,0.956776 -0.70391,0.91 -1.1339,-0.146885 -0.15682,-0.385441 -0.4421,-0.817756 -0.6956,-1.054079 l -0.42975,-0.400642 -0.0779,-1.715475 c -0.0429,-0.943511 -0.10293,-1.755918 -0.13348,-1.805345 -0.0306,-0.04943 -0.60075,-0.08987 -1.26712,-0.08987 h -1.21158 l -0.57463,-0.895808 c -0.31605,-0.492692 -0.61282,-0.855148 -0.65948,-0.805462 -0.0467,0.04969 -0.40013,1.209589 -0.78548,2.577556 l -0.70065,2.48721 -0.39362,0.169105 c -0.91831,0.394516 -4.20082,0.267862 -4.5598,-0.175937 -0.0917,-0.113318 -0.5166,-1.216425 -0.94433,-2.451359 l -0.77769,-2.245327 -0.44111,0.0312 -0.44111,0.0312 -0.23401,1.749067 c -0.1287,0.961987 -0.25516,1.76941 -0.28103,1.794276 -0.0893,0.0859 -15.37862,3.95578 -15.62867,3.95578 -0.0616,0 -0.3097,-0.26247 -0.55128,-0.583264 z"
       id="path16" /></g></svg>
