<?xml version="1.0" encoding="UTF-8" standalone="no"?>
<!-- Created with Inkscape (http://www.inkscape.org/) -->

<svg
   width="65.795303mm"
   height="90.393684mm"
   viewBox="0 0 65.795303 90.393685"
   version="1.1"
   id="svg1"
   xml:space="preserve"
   xmlns="http://www.w3.org/2000/svg"
   xmlns:svg="http://www.w3.org/2000/svg"><defs
     id="defs1" /><g
     id="layer1"
     transform="translate(-71.733801,14.965597)"><path
       style="fill:#000000"
       d="m 82.613722,75.270527 c -0.15817,-0.08443 -0.31731,-0.203608 -0.35365,-0.264829 -0.0363,-0.06122 -0.44615,-0.648259 -0.91069,-1.30453 l -0.84461,-1.193219 0.005,-0.814822 c 0.003,-0.555646 0.0535,-0.906296 0.15817,-1.102406 0.22221,-0.416478 9.12314,-9.057464 9.19564,-8.927093 0.033,0.05931 0.0904,0.318261 0.12754,0.575439 0.0372,0.257179 0.0919,0.53091 0.12155,0.60829 0.0375,0.09774 0.54436,-0.34904 1.66025,-1.463479 l 1.60626,-1.604172 0.0576,-1.592376 c 0.0316,-0.875807 0.0815,-2.16395 0.11073,-2.862541 l 0.0532,-1.270163 -4.19919,5.08e-4 -4.19919,5.07e-4 -2.10895,0.43605 c -1.73932,0.359624 -7.33591,1.480163 -7.39275,1.480163 -0.009,0 -0.2314,-0.355886 -0.49442,-0.790857 -0.26303,-0.434971 -1.15192,-1.904921 -1.97532,-3.266556 -1.43284,-2.369463 -1.49709,-2.497517 -1.49709,-2.984128 0,-0.390511 0.0774,-0.661177 0.33372,-1.167035 0.19662,-0.388023 0.33446,-0.802081 0.33552,-1.00783 0.002,-0.474688 0.25845,-0.575108 0.54619,-0.214242 l 0.20996,0.263318 0.0654,-0.260561 c 0.0568,-0.226395 1.53366,-1.623971 4.35903,-4.125069 0.18578,-0.164459 0.74656,-0.67051 1.24619,-1.124559 0.49963,-0.454048 1.12791,-1.014838 1.39618,-1.246198 0.26827,-0.23136 1.45456,-1.284781 2.63619,-2.340934 2.18246,-1.950693 5.85953,-5.22869 9.32992,-8.317336 l 1.91679,-1.705948 0.60145,-2.991261 c 0.63529,-3.159531 0.80916,-3.836227 1.32277,-5.148144 0.29798,-0.761136 0.32321,-0.915877 0.38285,-2.348604 0.0351,-0.843581 0.12518,-2.310261 0.20015,-3.259289 0.075,-0.949028 0.13658,-1.779427 0.13691,-1.845332 4.7e-4,-0.09172 0.43623,-0.119827 1.85756,-0.119827 h 1.856948 l 0.0601,0.455342 c 0.10068,0.762557 0.34642,3.680997 0.35717,4.241868 0.009,0.488115 0.0158,0.502341 0.0864,0.191723 0.042,-0.184534 0.12654,-3.1826 0.18795,-6.662369 0.26197,-14.8422604 0.26521,-14.9194884 0.73322,-17.4947094 0.2792,-1.536297 0.89637,-3.6877546 1.44369,-5.0327246 0.36938,-0.907697 1.20993,-2.636189 1.28196,-2.636189 0.20628,0 1.34468,2.60584 1.90753,4.366432 0.62015,1.9398336 0.96654,3.5978186 1.21065,5.7948786 0.15197,1.367739 0.17833,2.380844 0.34169,13.133014 0.0565,3.7170274 0.1143,6.8660744 0.12852,6.9978844 0.0142,0.131809 0.0364,0.606323 0.0493,1.054476 0.0129,0.448152 0.039,0.750115 0.0579,0.671029 0.0281,-0.117456 0.42267,-4.800437 0.42267,-5.016435 0,-0.03532 0.83923,-0.06422 1.86495,-0.06422 h 1.86496 l 0.0472,0.31155 c 0.0739,0.488332 0.34654,5.030569 0.34572,5.76011 -6.3e-4,0.554617 0.0672,0.827252 0.44071,1.771652 0.2428,0.61389 0.56246,1.656187 0.71036,2.316215 0.26198,1.169192 1.01514,4.920183 1.07234,5.340574 0.0182,0.134073 0.74299,0.845807 2.00111,1.965159 5.45438,4.852765 10.78335,9.603822 12.50559,11.149374 6.72048,6.031035 6.46749,5.793847 6.47019,6.066275 l 0.003,0.260579 0.27496,-0.331627 c 0.24208,-0.291984 0.29405,-0.315778 0.43471,-0.199045 0.099,0.08216 0.15037,0.244741 0.1351,0.427488 -0.0149,0.178047 0.0956,0.541817 0.27872,0.918006 0.36107,0.741609 0.41563,1.068539 0.26397,1.581713 -0.0623,0.210895 -0.68882,1.332474 -1.39222,2.492397 -0.7034,1.159923 -1.55506,2.572681 -1.89258,3.139462 -0.33753,0.56678 -0.64629,1.03051 -0.68615,1.03051 -0.0978,0 -5.262,-1.041062 -7.57269,-1.5266 l -1.859,-0.390628 h -4.1713 -4.17131 l 0.0566,2.844539 0.0566,2.844539 1.61092,1.613017 c 0.88601,0.887159 1.63878,1.613017 1.67283,1.613017 0.0341,0 0.0916,-0.248042 0.12799,-0.551203 0.0363,-0.303162 0.0884,-0.645304 0.11565,-0.760315 0.0504,-0.212689 1.2652,0.942806 7.57343,7.203809 l 1.74174,1.728692 0.0674,0.652169 c 0.10279,0.994834 0.0312,1.215121 -0.74629,2.296158 -0.38844,0.540095 -0.7852,1.116341 -0.88168,1.280547 -0.24584,0.418386 -0.62247,0.613269 -1.17078,0.605798 -0.25548,-0.0035 -2.74817,-0.467608 -5.5393,-1.031393 l -5.07479,-1.025063 -0.0798,-0.308081 c -0.0439,-0.169445 -0.15778,-0.771045 -0.25306,-1.33689 l -0.17322,-1.028808 -0.12715,1.317336 c -0.0699,0.724535 -0.16629,1.34152 -0.21411,1.371077 -0.0478,0.02956 -0.25552,-0.123458 -0.46154,-0.340034 -0.47905,-0.503585 -1.29612,-2.184023 -1.85127,-3.807447 -0.42721,-1.249312 -0.43139,-1.27416 -0.55557,-3.307219 -0.0688,-1.126647 -0.14172,-1.962175 -0.16202,-1.856727 -0.0325,0.168617 -0.83847,2.993162 -1.18994,4.169972 l -0.12884,0.431376 -2.0329,0.02587 c -1.11809,0.01423 -2.0329,0.0017 -2.0329,-0.02784 0,-0.02954 -0.17794,-0.688246 -0.39541,-1.463793 -0.21748,-0.775546 -0.53674,-1.970874 -0.70946,-2.656283 -0.26379,-1.046786 -0.32472,-1.20018 -0.3808,-0.958614 -0.1062,0.457534 -0.99925,3.769708 -1.20884,4.483414 l -0.19058,0.648958 -2.02061,-0.02586 -2.020608,-0.02586 -0.41826,-1.437921 c -0.23004,-0.790857 -0.53727,-1.890867 -0.68273,-2.444466 l -0.26447,-1.006545 -0.0659,1.846516 c -0.0496,1.390068 -0.11513,2.036382 -0.26501,2.614599 -0.46565,1.79638 -1.70637,4.415663 -2.32903,4.916807 -0.19748,0.158936 -0.37695,0.270804 -0.39883,0.248597 -0.0219,-0.02221 -0.076,-0.687442 -0.12026,-1.478299 l -0.0805,-1.437921 -0.27791,1.319311 c -0.15285,0.725622 -0.3254,1.379487 -0.38344,1.453035 -0.11624,0.147271 -10.02971,2.167736 -10.60237,2.160866 -0.18453,-0.0022 -0.46493,-0.07311 -0.6231,-0.157544 z"
       id="path3" /></g></svg>
