<?xml version="1.0" encoding="UTF-8" standalone="no"?>
<!-- Created with Inkscape (http://www.inkscape.org/) -->

<svg
   width="56.231861mm"
   height="75.428085mm"
   viewBox="0 0 56.231861 75.428086"
   version="1.1"
   id="svg1"
   xml:space="preserve"
   xmlns="http://www.w3.org/2000/svg"
   xmlns:svg="http://www.w3.org/2000/svg"><defs
     id="defs1" /><g
     id="layer1"><path
       style="fill:#000000"
       d="m 26.684329,75.322768 c -0.62361,-0.11328 -1.05625,-0.28889 -1.23126,-0.49976 -0.15656,-0.18864 -1.37988,-5.13302 -1.48249,-5.99189 -0.0512,-0.42822 -0.0931,-0.98583 -0.0933,-1.23912 -2.1e-4,-0.39194 -0.0228,-0.45618 -0.15163,-0.4314 -0.13879,0.0267 -0.15332,0.21455 -0.17449,2.25562 l -0.0231,2.2265 h -0.98136 -0.98136 l -0.0546,-0.45418 c -0.03,-0.2498 -0.0549,-0.65857 -0.0553,-0.90836 -4.1e-4,-0.2498 -0.0397,-0.45419 -0.0873,-0.45419 -0.0535,0 -0.0865,0.45803 -0.0865,1.20106 0,1.39908 0.0789,1.3046 -1.09045,1.30657 -0.38563,6.5e-4 -1.18369,0.0392 -1.77346,0.0857 -0.85883,0.0677 -4.55523,0.27219 -6.65225,0.36803 -0.35284,0.0161 -0.4764,-0.0409 -1.31929,-0.60861 l -0.929999,-0.6264 v -1.75687 -1.75686 l 0.973239,-0.76975 c 0.53529,-0.42337 1.61559,-1.27898 2.40067,-1.90138 2.08493,-1.65287 4.82548,-3.80738 6.56561,-5.16161 l 1.52313,-1.18535 0.046,1.24578 c 0.0903,2.4451 0.17026,1.30903 0.17026,-2.41972 v -3.78975 l -3.26578,0.0564 c -9.031338,0.15599 -13.106241,0.23435 -14.616083,0.28107 l -1.66113,0.0514 -0.02583,0.44488 -0.02583,0.44489 -0.800223,0.0249 L 0,55.385268 v -6.70074 c 0,-3.68541 0.02363,-6.76232 0.05251,-6.83758 0.136262,-0.35509 0.836233,0.0809 0.936752,0.58354 0.02068,0.10339 0.10185,1.37534 0.180381,2.82655 0.07853,1.45122 0.157661,2.68712 0.175843,2.74646 0.02028,0.0662 0.477286,-0.20361 1.182135,-0.69785 0.631993,-0.44316 1.499445,-1.05113 1.927672,-1.35105 0.428228,-0.29992 1.031639,-0.72814 1.340914,-0.9516 0.309275,-0.22347 0.951616,-0.67963 1.427425,-1.01371 1.431244,-1.00491 2.802347,-1.97785 5.660097,-4.01645 1.49531,-1.06669 3.02021,-2.15354 3.38867,-2.41524 0.92042,-0.65371 3.73739,-2.69548 3.83102,-2.77675 0.0419,-0.0364 0.1311,-0.54574 0.19818,-1.13189 0.13047,-1.13993 0.15844,-1.24917 1.08162,-4.22335 0.73147,-2.35656 1.56256,-5.595938 1.75341,-6.834336 0.077,-0.499599 0.33347,-2.231973 0.56993,-3.84972 0.55685,-3.809585 0.94997,-6.438335 0.99941,-6.682941 0.0216,-0.107057 0.097,-0.194649 0.16747,-0.194649 0.0842,0 0.12811,-0.08748 0.12811,-0.255101 0,-0.140305 0.0598,-0.714519 0.13291,-1.27603 0.35263,-2.7086314 1.16003,-5.5190314 2.27887,-7.9322464 0.19611,-0.422986 0.3582,-0.870678 0.36019,-0.994871 0.006,-0.359526 0.31857,-1.53691802 0.37025,-1.39369902 0.14932,0.413788 0.31821,1.14534502 0.31821,1.37832302 0,0.148672 0.11367,0.495496 0.2526,0.77072 1.19799,2.373206 2.27378,6.212807 2.48049,8.8530934 0.0409,0.522179 0.0974,0.755705 0.20553,0.849811 0.11222,0.09763 0.20557,0.526155 0.37693,1.730211 0.12527,0.880245 0.36636,2.515295 0.53575,3.633444 0.16939,1.118149 0.44195,2.967312 0.60567,4.109252 0.3787,2.641297 1.04773,5.344359 2.20542,8.910589 0.55835,1.71997 0.67202,2.18933 0.82093,3.38973 0.0691,0.55664 0.17513,1.05998 0.23572,1.11852 0.35741,0.34536 5.33626,3.92465 13.08675,9.40805 4.12685,2.91971 5.60652,3.95038 5.63311,3.92378 0.0105,-0.0105 0.081,-1.12855 0.15672,-2.48455 0.18147,-3.25111 0.19032,-3.32212 0.45296,-3.63424 0.23693,-0.28158 0.58328,-0.34466 0.6688,-0.1218 0.0289,0.0753 0.0525,3.15071 0.0525,6.83433 v 6.6975 h -0.76851 c -0.84978,0 -0.87122,-0.0163 -0.87401,-0.66269 l -0.001,-0.2734 -0.71371,-0.0483 c -0.66659,-0.0451 -16.41704,-0.31978 -18.08068,-0.31531 l -0.75697,0.002 v 3.76321 c 0,2.45113 0.0302,3.76321 0.0865,3.76321 0.0538,0 0.0865,-0.49023 0.0865,-1.29766 0,-0.71371 0.0211,-1.29766 0.047,-1.29766 0.0259,0 0.96989,0.72751 2.09788,1.61669 1.12799,0.88918 2.84895,2.24324 3.82436,3.00901 0.9754,0.76577 2.62096,2.06665 3.65679,2.89084 l 1.88334,1.49852 -0.0234,1.77755 -0.0233,1.77756 -0.9509,0.63989 c -0.64146,0.43166 -1.00743,0.62632 -1.12464,0.59819 -0.0956,-0.0229 -2.19808,-0.14449 -4.67229,-0.27011 -2.4742,-0.12562 -4.58614,-0.24571 -4.6932,-0.26686 -0.19065,-0.0377 -0.19464,-0.0631 -0.19464,-1.2387 0,-0.97494 -0.0238,-1.20939 -0.12688,-1.24893 -0.10575,-0.0406 -0.13096,0.10557 -0.1514,0.87747 l -0.0245,0.92617 -1.01503,0.0244 -1.01503,0.0244 -0.0231,-2.22923 c -0.0212,-2.04367 -0.0357,-2.23166 -0.17449,-2.25836 -0.13016,-0.025 -0.15143,0.0415 -0.15164,0.47467 -4.6e-4,0.95688 -0.18941,2.06819 -0.68872,4.05071 -0.75235,2.98718 -0.82989,3.21988 -1.12353,3.37173 -0.6702,0.34657 -2.6579,0.48313 -3.85828,0.26507 z"
       id="path1" /><path
       style="fill:#000000;stroke-width:0.260048"
       d="m 24.500285,160.16195 c -0.265763,-0.66957 -1.184344,-4.12485 -1.455341,-5.47432 -0.04418,-0.22001 -0.116426,-0.41093 -0.160546,-0.42429 -0.04412,-0.0133 -0.164254,-0.0427 -0.266964,-0.0651 -0.144325,-0.0316 -0.202246,-0.0993 -0.254975,-0.29816 -0.0903,-0.34055 -0.349229,-2.37964 -0.349397,-2.75149 -1.42e-4,-0.31412 -0.09802,-0.39039 -0.176581,-0.1376 -0.02646,0.0851 -0.141539,0.36487 -0.255727,0.62161 l -0.207612,0.46681 -1.658232,0.9394 c -0.912027,0.51667 -2.463243,1.39888 -3.447145,1.96047 -1.21825,0.69536 -1.843277,1.01497 -1.95933,1.00195 -0.348966,-0.0392 -0.357507,-0.12737 -0.308086,-3.1813 0.02508,-1.54998 0.07258,-2.88908 0.105541,-2.97579 0.09667,-0.25425 0.256311,-0.19042 0.337067,0.13478 0.03994,0.16083 0.09553,0.38202 0.123544,0.49154 l 0.05093,0.19912 0.380556,-0.47434 c 0.595141,-0.7418 3.829228,-4.84583 5.210786,-6.61244 l 1.248933,-1.59703 -0.04299,-1.48469 c -0.02364,-0.81659 -0.06713,-1.49963 -0.09666,-1.51788 -0.02952,-0.0182 -0.667039,-0.002 -1.416712,0.0347 -0.749672,0.0373 -2.144831,0.089 -3.100352,0.11489 -1.58682,0.043 -1.73731,0.0372 -1.73731,-0.0664 0,-0.092 -0.07373,-0.1134 -0.39145,-0.1134 -0.430272,0 -2.762541,0.13391 -6.0093984,0.34504 -1.155316,0.0752 -2.137165,0.13659 -2.181887,0.13659 -0.158927,0 -0.242391,-0.5618 -0.201108,-1.35367 0.04657,-0.89332 0.142005,-1.1501 0.66101,-1.77854 0.186783,-0.22617 2.51413,-3.13587 5.1718834,-6.466 2.657753,-3.33013 5.848639,-7.32423 7.090857,-8.87576 l 2.25858,-2.82098 1.59e-4,-1.05256 c 1.55e-4,-1.01653 0.0057,-1.05773 0.162176,-1.20407 l 0.162017,-0.15152 0.07948,-4.7131 c 0.04372,-2.59221 0.10938,-4.9608 0.145924,-5.26354 0.140278,-1.1621 0.290634,-2.2117 0.350937,-2.44979 0.057,-0.22506 0.09573,-0.25695 0.417792,-0.34402 l 0.354968,-0.096 0.505804,-1.3417 c 0.278192,-0.73792 0.534884,-1.4036 0.570426,-1.47929 0.03555,-0.07568 0.09911,-0.787803 0.141263,-1.582497 0.09875,-1.861663 0.190279,-2.619017 0.302829,-2.505627 0.06612,0.06663 0.177848,1.160573 0.252622,2.473511 l 0.0802,1.4082 0.549591,1.444893 c 0.302275,0.79469 0.564948,1.48377 0.583718,1.53129 0.01877,0.0475 0.153948,0.10555 0.300396,0.12897 0.146447,0.0234 0.312155,0.0774 0.368242,0.12002 0.09976,0.0758 0.282439,1.14511 0.448125,2.6232 0.03818,0.34058 0.105074,2.74014 0.148661,5.33234 l 0.07925,4.7131 0.162869,0.15153 c 0.157311,0.14635 0.162969,0.18745 0.16576,1.20407 l 0.0029,1.05256 2.614124,3.2682 c 1.43777,1.79751 3.012513,3.7636 3.499427,4.36908 5.0821,6.31957 8.734147,10.93332 8.877278,11.21496 0.161932,0.31863 0.174755,0.41312 0.174755,1.28762 0,0.7594 -0.02078,0.96452 -0.106311,1.05007 -0.09588,0.0959 -0.315318,0.093 -2.236142,-0.029 -1.171407,-0.0745 -3.027729,-0.18376 -4.125157,-0.24292 -1.097432,-0.0592 -2.052934,-0.12039 -2.123342,-0.13607 -0.0858,-0.0191 -0.14033,0.0186 -0.165365,0.11434 -0.03699,0.14145 -0.05461,0.14239 -1.798509,0.0963 -0.968636,-0.0256 -2.361268,-0.0774 -3.094735,-0.11526 -0.733468,-0.0378 -1.347272,-0.055 -1.364007,-0.0383 -0.01673,0.0167 -0.0575,0.70225 -0.09059,1.52336 l -0.06016,1.49293 0.930587,1.17959 c 1.95177,2.474 3.12914,3.96385 4.325897,5.47403 0.681164,0.85955 1.320882,1.66918 1.421599,1.79918 0.206082,0.26601 0.210558,0.2611 0.333727,-0.36566 0.08503,-0.43268 0.228826,-0.52447 0.3446,-0.21996 0.03674,0.0966 0.08581,1.38928 0.109051,2.87258 0.04633,2.95677 0.0213,3.2238 -0.306654,3.27024 -0.109649,0.0155 -0.762939,-0.32016 -2.029671,-1.04292 -1.027388,-0.58621 -2.583457,-1.47052 -3.457932,-1.96514 l -1.589953,-0.89931 -0.267765,-0.61968 c -0.147271,-0.34082 -0.286562,-0.62015 -0.309536,-0.62072 -0.02297,-5.2e-4 -0.06019,0.2389 -0.08271,0.53218 -0.08882,1.15681 -0.286313,2.5303 -0.387333,2.69376 -0.03038,0.0491 -0.15986,0.11062 -0.28774,0.1366 -0.194923,0.0396 -0.241061,0.0858 -0.285416,0.28554 -0.432855,1.94972 -1.232673,4.97759 -1.476041,5.58785 -0.122576,0.30737 -0.183428,0.32212 -0.28397,0.0688 z"
       id="path7" /></g></svg>
