<?xml version="1.0" encoding="UTF-8" standalone="no"?>
<!-- Created with Inkscape (http://www.inkscape.org/) -->

<svg
   width="65.899925mm"
   height="87.323593mm"
   viewBox="0 0 65.899925 87.323594"
   version="1.1"
   id="svg1"
   xml:space="preserve"
   xmlns="http://www.w3.org/2000/svg"
   xmlns:svg="http://www.w3.org/2000/svg"><defs
     id="defs1" /><g
     id="layer1"
     transform="translate(-144.14232,12.183056)"><path
       style="fill:#000000;stroke-width:0.374326"
       d="m 194.72207,74.976348 c -1.08578,-0.446896 -10.55617,-4.302711 -10.95871,-4.461777 -0.3802,-0.150243 -0.42318,-0.204438 -0.51996,-0.655684 -0.058,-0.270548 -0.10549,-0.601134 -0.10549,-0.734633 0,-0.146033 -0.0573,-0.242724 -0.14364,-0.242724 -0.079,0 -0.18359,-0.07137 -0.2324,-0.158599 -0.0637,-0.113761 -0.12242,0.05016 -0.20788,0.57988 -0.0655,0.406162 -0.24774,1.312993 -0.40493,2.015179 -0.34333,1.533666 -0.43427,1.644683 -1.49374,1.823383 -0.7446,0.125594 -1.4446,0.07802 -2.08164,-0.141454 -0.3316,-0.114244 -0.38476,-0.110636 -0.44211,0.02998 -0.0783,0.191861 -0.29498,-0.558999 -0.39697,-1.375262 -0.0687,-0.549779 -0.23263,-1.018098 -0.23898,-0.682702 -0.0135,0.715014 -0.24344,2.850502 -0.32311,3.001228 -0.18744,0.354584 -0.26669,-0.06016 -0.33637,-1.760259 -0.0371,-0.90624 -0.10519,-1.647712 -0.15122,-1.647712 -0.046,0 -0.0837,0.105582 -0.0837,0.234627 0,0.405658 -0.30245,1.98921 -0.39822,2.084981 -0.0504,0.05033 -0.19302,0.10124 -0.31709,0.113132 -0.12407,0.0119 -0.61184,0.07868 -1.08395,0.148416 -0.76433,0.112901 -0.92878,0.107732 -1.50107,-0.04718 -0.36129,-0.0978 -0.72618,-0.267829 -0.83336,-0.388328 -0.17663,-0.198584 -0.70366,-2.370551 -0.88113,-3.631254 -0.0731,-0.519568 -0.22644,-0.872232 -0.23131,-0.532085 -0.002,0.11589 -0.0642,0.261488 -0.13896,0.323544 -0.0748,0.06206 -0.16516,0.368352 -0.20084,0.680652 -0.0357,0.312297 -0.10017,0.624308 -0.14332,0.693356 -0.0432,0.06905 -1.88036,0.854284 -4.08267,1.74497 -2.20232,0.890681 -4.83681,1.959536 -5.85443,2.375228 -1.01762,0.415689 -1.94497,0.755802 -2.06076,0.755802 -0.1158,0 -0.7429,-0.25185 -1.39356,-0.559662 -1.35985,-0.643318 -1.28306,-0.525255 -1.47175,-2.262991 -0.16406,-1.510937 -0.17014,-3.032504 -0.013,-3.268333 0.0725,-0.108944 0.52048,-0.510057 0.99535,-0.891364 0.47487,-0.381304 1.6831,-1.364788 2.68494,-2.185517 2.09095,-1.712956 3.56681,-2.909609 5.0178,-4.068522 0.86345,-0.689635 0.98668,-0.822334 0.81445,-0.877001 -0.11162,-0.03541 -0.26488,-0.161308 -0.34058,-0.279741 -0.19872,-0.310915 -0.45781,-2.089412 -0.5225,-3.586659 l -0.0558,-1.291489 1.31774,-1.580684 c 0.72476,-0.869379 1.62842,-1.927512 2.00812,-2.351411 0.37971,-0.423901 0.6718,-0.7893 0.6491,-0.812002 -0.0226,-0.02272 -1.13177,-0.110688 -2.4646,-0.195529 -1.33282,-0.08484 -3.31468,-0.221661 -4.40413,-0.30405 -2.91794,-0.220677 -5.53161,-0.415476 -9.30979,-0.693881 -1.85206,-0.136471 -3.91576,-0.291892 -4.58601,-0.345379 -0.67025,-0.05349 -1.45872,-0.09725 -1.75212,-0.09725 -0.29342,0 -0.56143,-0.04521 -0.59558,-0.100461 -0.0341,-0.05525 -0.11264,-0.500935 -0.17441,-0.990404 -0.0617,-0.489467 -0.14294,-0.889944 -0.18034,-0.889944 -0.0374,0 -0.097,0.154881 -0.13257,0.344185 -0.11465,0.611068 -0.3467,1.058204 -0.531,1.023167 -0.13298,-0.02527 -0.18257,-0.18065 -0.23126,-0.724526 -0.0803,-0.896912 -0.0804,-6.727715 -2.4e-4,-8.962218 0.0588,-1.63936 0.0728,-1.733207 0.25798,-1.733207 0.21125,0 0.17793,-0.10267 0.69114,2.129368 0.14403,0.62643 0.30565,1.30499 0.35916,1.507909 l 0.0973,0.368943 3.85866,-1.928829 c 2.12227,-1.060857 3.88893,-1.928831 3.92591,-1.928831 0.0369,0 0.13968,0.06557 0.22823,0.145697 0.14404,0.130353 0.82279,-0.182822 6.44542,-2.973878 3.45645,-1.715765 6.8861,-3.423249 7.62148,-3.794407 l 1.33704,-0.674834 0.0636,-2.318472 c 0.0783,-2.855286 0.17537,-3.508315 1.23542,-8.310416 0.74908,-3.393487 1.26343,-5.786753 2.21851,-10.3229431 0.30398,-1.4438163 0.67168,-2.4426194 1.23541,-3.3559458 l 0.34582,-0.5602758 0.0481,-2.8092161 c 0.07,-4.0810481 0.1112,-4.7594449 0.29544,-4.8625539 0.11348,-0.063506 0.15345,-0.2499096 0.15345,-0.715629 0,-1.5979513 0.57809,-4.8352977 1.20725,-6.7606729 0.4003,-1.2250054 1.03998,-2.4542484 1.27714,-2.4542484 0.18474,0 0.92875,1.442251 1.22621,2.3769694 0.5584,1.7546822 0.97198,3.8728353 1.09501,5.6081002 0.10771,1.5192325 0.15286,1.802814 0.30472,1.9138475 0.13127,0.095988 0.16107,0.6417042 0.21115,3.8652859 l 0.0583,3.7535175 0.4427,0.7488002 c 0.42372,0.7166946 1.01129,2.043012 1.01129,2.2827716 0,0.1579267 1.32011,6.3676877 2.37951,11.1931527 1.0755,4.898757 1.18595,5.692763 1.18595,8.525512 v 2.176783 l 7.67938,3.822041 c 7.34074,3.653495 7.68764,3.814574 7.86646,3.652739 0.17872,-0.161738 0.36095,-0.08286 4.07903,1.765592 2.74299,1.363691 3.9142,1.899875 3.96734,1.816275 0.0415,-0.06524 0.0777,-0.207754 0.0805,-0.316698 0.003,-0.108944 0.19349,-0.955243 0.42375,-1.880663 0.31037,-1.247453 0.4599,-1.690527 0.57819,-1.713308 0.0878,-0.0169 0.18412,0.03331 0.21417,0.111583 0.10883,0.283605 0.18753,9.514545 0.0883,10.350859 -0.1501,1.264342 -0.43598,1.334034 -0.76496,0.186466 l -0.17696,-0.617312 -0.13187,0.888744 c -0.0725,0.488805 -0.1458,0.930593 -0.16285,0.981748 -0.0368,0.110651 -0.0657,0.115371 -1.20876,0.197984 -1.63711,0.118322 -4.73859,0.349778 -6.1405,0.458258 -0.76261,0.05901 -1.96595,0.147488 -2.67409,0.196618 -3.271,0.226947 -8.48103,0.594516 -9.06219,0.639338 -0.35407,0.02733 -1.40143,0.09935 -2.32745,0.160091 -0.92603,0.06074 -1.69522,0.121577 -1.70931,0.135192 -0.0141,0.01363 0.27931,0.377193 0.65201,0.80796 0.37269,0.430762 1.26992,1.495499 1.99386,2.36608 l 1.31623,1.582874 -0.0647,1.289299 c -0.0795,1.587362 -0.32194,3.296456 -0.50839,3.584473 -0.0767,0.118433 -0.22925,0.243852 -0.33908,0.278705 -0.1656,0.05257 0.0494,0.26439 1.26013,1.241571 1.33705,1.079122 3.66467,2.980634 6.89242,5.630641 1.08607,0.89167 1.26643,1.081708 1.36298,1.436086 0.21538,0.790599 -0.16008,4.452824 -0.48207,4.702031 -0.15784,0.122157 -1.77567,0.912622 -2.25643,1.102479 -0.13483,0.05325 -0.38094,0.0058 -0.7428,-0.143108 z m -17.48184,-5.870571 c -0.0375,-0.557566 -0.1075,-0.989474 -0.15552,-0.959798 -0.10401,0.06428 -0.11122,0.620824 -0.0218,1.679185 0.0525,0.620651 0.0835,0.727423 0.15553,0.534904 0.0495,-0.132407 0.0593,-0.696254 0.0218,-1.254291 z"
       id="path6" /></g></svg>
