<?xml version="1.0" encoding="UTF-8" standalone="no"?>
<!-- Created with Inkscape (http://www.inkscape.org/) -->

<svg
   width="36.694508mm"
   height="64.393997mm"
   viewBox="0 0 36.694507 64.393998"
   version="1.1"
   id="svg1"
   xml:space="preserve"
   xmlns="http://www.w3.org/2000/svg"
   xmlns:svg="http://www.w3.org/2000/svg"><defs
     id="defs1" /><g
     id="layer1"
     transform="translate(-6.2693712,-95.944958)"><path
       style="fill:#000000;stroke-width:0.260048"
       d="m 24.500285,160.16195 c -0.265763,-0.66957 -1.184344,-4.12485 -1.455341,-5.47432 -0.04418,-0.22001 -0.116426,-0.41093 -0.160546,-0.42429 -0.04412,-0.0133 -0.164254,-0.0427 -0.266964,-0.0651 -0.144325,-0.0316 -0.202246,-0.0993 -0.254975,-0.29816 -0.0903,-0.34055 -0.349229,-2.37964 -0.349397,-2.75149 -1.42e-4,-0.31412 -0.09802,-0.39039 -0.176581,-0.1376 -0.02646,0.0851 -0.141539,0.36487 -0.255727,0.62161 l -0.207612,0.46681 -1.658232,0.9394 c -0.912027,0.51667 -2.463243,1.39888 -3.447145,1.96047 -1.21825,0.69536 -1.843277,1.01497 -1.95933,1.00195 -0.348966,-0.0392 -0.357507,-0.12737 -0.308086,-3.1813 0.02508,-1.54998 0.07258,-2.88908 0.105541,-2.97579 0.09667,-0.25425 0.256311,-0.19042 0.337067,0.13478 0.03994,0.16083 0.09553,0.38202 0.123544,0.49154 l 0.05093,0.19912 0.380556,-0.47434 c 0.595141,-0.7418 3.829228,-4.84583 5.210786,-6.61244 l 1.248933,-1.59703 -0.04299,-1.48469 c -0.02364,-0.81659 -0.06713,-1.49963 -0.09666,-1.51788 -0.02952,-0.0182 -0.667039,-0.002 -1.416712,0.0347 -0.749672,0.0373 -2.144831,0.089 -3.100352,0.11489 -1.58682,0.043 -1.73731,0.0372 -1.73731,-0.0664 0,-0.092 -0.07373,-0.1134 -0.39145,-0.1134 -0.430272,0 -2.762541,0.13391 -6.0093984,0.34504 -1.155316,0.0752 -2.137165,0.13659 -2.181887,0.13659 -0.158927,0 -0.242391,-0.5618 -0.201108,-1.35367 0.04657,-0.89332 0.142005,-1.1501 0.66101,-1.77854 0.186783,-0.22617 2.51413,-3.13587 5.1718834,-6.466 2.657753,-3.33013 5.848639,-7.32423 7.090857,-8.87576 l 2.25858,-2.82098 1.59e-4,-1.05256 c 1.55e-4,-1.01653 0.0057,-1.05773 0.162176,-1.20407 l 0.162017,-0.15152 0.07948,-4.7131 c 0.04372,-2.59221 0.10938,-4.9608 0.145924,-5.26354 0.140278,-1.1621 0.290634,-2.2117 0.350937,-2.44979 0.057,-0.22506 0.09573,-0.25695 0.417792,-0.34402 l 0.354968,-0.096 0.505804,-1.3417 c 0.278192,-0.73792 0.534884,-1.4036 0.570426,-1.47929 0.03555,-0.07568 0.09911,-0.787803 0.141263,-1.582497 0.09875,-1.861663 0.190279,-2.619017 0.302829,-2.505627 0.06612,0.06663 0.177848,1.160573 0.252622,2.473511 l 0.0802,1.4082 0.549591,1.444893 c 0.302275,0.79469 0.564948,1.48377 0.583718,1.53129 0.01877,0.0475 0.153948,0.10555 0.300396,0.12897 0.146447,0.0234 0.312155,0.0774 0.368242,0.12002 0.09976,0.0758 0.282439,1.14511 0.448125,2.6232 0.03818,0.34058 0.105074,2.74014 0.148661,5.33234 l 0.07925,4.7131 0.162869,0.15153 c 0.157311,0.14635 0.162969,0.18745 0.16576,1.20407 l 0.0029,1.05256 2.614124,3.2682 c 1.43777,1.79751 3.012513,3.7636 3.499427,4.36908 5.0821,6.31957 8.734147,10.93332 8.877278,11.21496 0.161932,0.31863 0.174755,0.41312 0.174755,1.28762 0,0.7594 -0.02078,0.96452 -0.106311,1.05007 -0.09588,0.0959 -0.315318,0.093 -2.236142,-0.029 -1.171407,-0.0745 -3.027729,-0.18376 -4.125157,-0.24292 -1.097432,-0.0592 -2.052934,-0.12039 -2.123342,-0.13607 -0.0858,-0.0191 -0.14033,0.0186 -0.165365,0.11434 -0.03699,0.14145 -0.05461,0.14239 -1.798509,0.0963 -0.968636,-0.0256 -2.361268,-0.0774 -3.094735,-0.11526 -0.733468,-0.0378 -1.347272,-0.055 -1.364007,-0.0383 -0.01673,0.0167 -0.0575,0.70225 -0.09059,1.52336 l -0.06016,1.49293 0.930587,1.17959 c 1.95177,2.474 3.12914,3.96385 4.325897,5.47403 0.681164,0.85955 1.320882,1.66918 1.421599,1.79918 0.206082,0.26601 0.210558,0.2611 0.333727,-0.36566 0.08503,-0.43268 0.228826,-0.52447 0.3446,-0.21996 0.03674,0.0966 0.08581,1.38928 0.109051,2.87258 0.04633,2.95677 0.0213,3.2238 -0.306654,3.27024 -0.109649,0.0155 -0.762939,-0.32016 -2.029671,-1.04292 -1.027388,-0.58621 -2.583457,-1.47052 -3.457932,-1.96514 l -1.589953,-0.89931 -0.267765,-0.61968 c -0.147271,-0.34082 -0.286562,-0.62015 -0.309536,-0.62072 -0.02297,-5.2e-4 -0.06019,0.2389 -0.08271,0.53218 -0.08882,1.15681 -0.286313,2.5303 -0.387333,2.69376 -0.03038,0.0491 -0.15986,0.11062 -0.28774,0.1366 -0.194923,0.0396 -0.241061,0.0858 -0.285416,0.28554 -0.432855,1.94972 -1.232673,4.97759 -1.476041,5.58785 -0.122576,0.30737 -0.183428,0.32212 -0.28397,0.0688 z"
       id="path7" /></g></svg>
