<?xml version="1.0" encoding="UTF-8" standalone="no"?>
<!-- Created with Inkscape (http://www.inkscape.org/) -->

<svg
   width="77.603111mm"
   height="82.805313mm"
   viewBox="0 0 77.60311 82.805314"
   version="1.1"
   id="svg1"
   xml:space="preserve"
   xmlns="http://www.w3.org/2000/svg"
   xmlns:svg="http://www.w3.org/2000/svg"><defs
     id="defs1" /><g
     id="layer1"
     transform="translate(-71.733812,-95.944958)"><path
       style="fill:#000000;stroke-width:0.340774"
       d="m 110.14897,177.60224 c -0.45342,-1.60383 -0.65241,-2.55212 -0.90376,-4.30685 l -0.21208,-1.48054 -0.29949,-0.0293 c -0.34627,-0.0338 -0.45027,0.0817 -0.45226,0.50258 l -0.001,0.29302 h -1.03687 c -0.57028,0 -1.03688,-0.0172 -1.03688,-0.0382 0,-0.0304 -0.54499,-2.53611 -0.77611,-3.56837 -0.0376,-0.16803 -0.15341,0.1074 -0.45482,1.08196 -0.22239,0.71904 -0.45229,1.35184 -0.51088,1.4062 -0.0586,0.0544 -0.59341,0.27137 -1.18848,0.48222 -0.59507,0.21084 -1.99485,0.70723 -3.11062,1.10308 -4.571578,1.62187 -6.908735,2.41719 -7.104799,2.41771 -0.358279,10e-4 -0.670329,-0.22596 -1.523516,-1.10789 -0.715285,-0.73939 -0.848848,-0.92709 -0.979519,-1.37659 -0.200868,-0.69096 -0.12705,-1.32316 0.206712,-1.77022 0.248159,-0.33243 2.793652,-3.26297 5.15354,-5.93315 3.979525,-4.50275 5.592452,-6.32157 5.999172,-6.76497 0.25157,-0.27426 0.77252,-0.84982 1.15767,-1.279 l 0.70026,-0.78035 0.0269,-1.02015 c 0.0215,-0.8144 0.0872,-1.24329 0.32612,-2.12645 l 0.29923,-1.10629 -0.99775,-1.50843 c -0.54877,-0.82963 -1.26777,-1.97502 -1.59778,-2.5453 -0.33001,-0.57028 -0.63159,-1.06996 -0.67018,-1.1104 -0.0684,-0.0718 -0.89132,0.19058 -9.561509,3.04813 -2.305915,0.75999 -5.470632,1.7945 -7.032704,2.29894 -1.562071,0.50442 -3.631308,1.17449 -4.598305,1.48901 -0.966997,0.31453 -2.689068,0.86714 -3.826825,1.22802 l -2.068648,0.65614 -0.984488,-1.03241 c -0.570026,-0.59777 -1.061502,-1.20186 -1.167423,-1.43489 -0.26016,-0.57238 -0.249885,-1.21289 0.02752,-1.71562 0.240306,-0.43548 0.465442,-0.60533 4.142859,-3.12519 1.016586,-0.69661 2.984391,-2.04983 4.3729,-3.00717 3.322032,-2.29045 6.480861,-4.46379 8.430228,-5.80017 0.867817,-0.59495 2.034862,-1.40097 2.59343,-1.79117 2.17545,-1.5197 5.174338,-3.49235 6.400318,-4.21008 1.232,-0.72126 1.28482,-0.76414 1.28482,-1.04301 0,-0.17214 0.0705,-0.35469 0.17283,-0.44725 0.20455,-0.18512 0.37818,-0.11722 0.954207,0.37337 l 0.36065,0.30713 0.1572,-0.70429 c 1.11303,-4.98649 2.52703,-10.90211 2.63069,-11.00577 0.0795,-0.0795 2.74478,-0.24491 2.81496,-0.17473 0.0423,0.0423 0.26458,2.00557 0.30312,2.6771 0.004,0.0745 0.10075,-0.15173 0.2144,-0.50247 0.19722,-0.60868 0.20947,-0.812 0.26894,-4.46307 0.0666,-4.09103 0.27038,-9.59248 0.42167,-11.38554 0.35101,-4.16004 0.7201,-5.71736 1.97865,-8.348632 0.39352,-0.822751 0.70422,-1.62295 0.83288,-2.145107 0.11284,-0.458051 0.22552,-0.832857 0.25033,-0.832887 0.0248,-4.5e-5 0.13428,0.368069 0.24319,0.818008 0.12417,0.512475 0.43928,1.328399 0.84367,2.1842 1.10626,2.341078 1.52874,3.955188 1.83311,7.003588 0.29632,2.96793 0.50465,8.40365 0.50799,13.25394 l 0.002,3.02045 0.25661,0.75844 0.25661,0.75843 0.0571,-0.69081 c 0.0314,-0.37994 0.0823,-0.99833 0.11344,-1.37418 0.0373,-0.45293 0.0979,-0.69934 0.17966,-0.7307 0.15826,-0.0607 2.71538,0.0977 2.79057,0.17294 0.0982,0.0982 0.63814,2.31424 1.65332,6.78614 0.54035,2.38031 1.01041,4.46158 1.04458,4.62508 l 0.0621,0.29726 0.37511,-0.30578 c 0.58211,-0.47454 0.72029,-0.52845 0.94722,-0.3695 0.14305,0.10015 0.19427,0.22976 0.19427,0.4916 0,0.19555 0.0384,0.35555 0.0853,0.35555 0.047,0 0.72653,0.38255 1.51022,0.85012 1.52932,0.91241 3.36904,2.13861 8.14205,5.4268 3.12435,2.15241 4.06616,2.79912 6.78922,4.66194 0.88268,0.60384 2.80991,1.93112 4.28274,2.94952 1.47283,1.01841 3.4621,2.39204 4.42062,3.05251 1.07239,0.73895 1.8098,1.30993 1.91706,1.48438 0.3114,0.50645 0.36493,0.8739 0.21259,1.45878 -0.15785,0.606 -0.25608,0.74283 -1.42191,1.98044 l -0.84934,0.90163 -0.89074,-0.28672 c -0.48991,-0.1577 -1.74278,-0.55721 -2.78415,-0.88782 -3.81607,-1.2115 -10.61389,-3.41969 -16.72521,-5.433 -3.44648,-1.13542 -6.36775,-2.0881 -6.49174,-2.1171 -0.20898,-0.0489 -0.26807,0.0239 -0.81145,0.99859 -0.32235,0.57824 -1.04505,1.74167 -1.60606,2.58544 -1.14676,1.72476 -1.088,1.47552 -0.69114,2.93162 0.1543,0.56616 0.25191,1.20713 0.2879,1.89064 l 0.0544,1.03411 1.49856,1.67078 c 2.72607,3.03936 6.4317,7.23056 8.25319,9.33462 0.98738,1.14057 2.13606,2.4532 2.55263,2.91697 0.41656,0.46376 0.8191,0.99092 0.89453,1.17146 0.17388,0.41616 0.11224,1.08813 -0.15733,1.71476 -0.26197,0.60896 -1.73842,2.04944 -2.18685,2.13356 -0.22867,0.0429 -0.66825,-0.0704 -1.87194,-0.4822 -3.14791,-1.07711 -8.34725,-2.92278 -9.48049,-3.3654 -0.2452,-0.0958 -0.45847,-0.59906 -0.98775,-2.33096 -0.0834,-0.27274 -0.15549,-0.45533 -0.16031,-0.40574 -0.0171,0.17528 -0.37297,1.81596 -0.60153,2.77252 l -0.23158,0.96924 h -1.0741 -1.07409 v -0.40573 c 0,-0.40257 -0.003,-0.40574 -0.31148,-0.40574 -0.35883,0 -0.28965,-0.22399 -0.6404,2.07375 -0.21334,1.39754 -0.47722,2.53334 -0.96834,4.16788 -0.1151,0.38313 -0.22806,0.71534 -0.25097,0.73827 -0.023,0.023 -0.19294,-0.49343 -0.37783,-1.14743 z"
       id="path8" /></g></svg>
