<?xml version="1.0" encoding="UTF-8" standalone="no"?>
<!-- Created with Inkscape (http://www.inkscape.org/) -->

<svg
   width="71.679192mm"
   height="97.387085mm"
   viewBox="0 0 71.67919 97.387086"
   version="1.1"
   id="svg1"
   xml:space="preserve"
   xmlns="http://www.w3.org/2000/svg"
   xmlns:svg="http://www.w3.org/2000/svg"><defs
     id="defs1" /><g
     id="layer1"
     transform="translate(-341.59912,-95.944966)"><path
       style="fill:#000000;stroke-width:0.377232"
       d="m 376.67628,190.57855 c -0.82584,-3.34609 -1.23653,-5.32298 -1.5677,-7.54613 -0.12802,-0.85942 -0.25407,-1.49521 -0.28012,-1.41287 -0.026,0.0823 -0.14363,0.65188 -0.2613,1.26565 -0.11766,0.61377 -0.25781,1.23134 -0.31143,1.37238 l -0.0975,0.25643 h -2.19638 c -2.19554,0 -2.19639,-8e-5 -2.24916,-0.22457 -0.0452,-0.19203 -0.33675,-3.09701 -0.3573,-3.55926 -0.004,-0.0872 -0.0946,0.0435 -0.20164,0.29051 -0.10703,0.24702 -0.45194,0.99686 -0.76647,1.66629 l -0.57188,1.21713 -2.74475,1.14638 c -1.50962,0.6305 -3.55321,1.49079 -4.54133,1.91176 -3.35044,1.42739 -3.45247,1.46484 -3.80888,1.39797 -0.28184,-0.0529 -0.54062,-0.32517 -1.77874,-1.87172 -1.30694,-1.6325 -1.44892,-1.84791 -1.44892,-2.19816 0,-0.21357 0.052,-0.48641 0.11549,-0.60631 0.0636,-0.11991 1.19759,-1.44865 2.52017,-2.95276 1.32259,-1.50411 2.78647,-3.16911 3.25308,-3.70002 1.29711,-1.47586 7.15326,-8.04582 7.87402,-8.8338 l 0.63786,-0.69735 -0.069,-1.5455 c -0.0379,-0.85001 -0.0886,-1.56514 -0.11261,-1.58915 -0.0426,-0.0426 -3.57375,0.39714 -7.98099,0.99397 -2.50629,0.3394 -4.20164,0.56296 -7.53559,0.9937 -2.60749,0.33689 -6.67879,0.88817 -8.86573,1.20048 -1.10805,0.15823 -1.46191,0.17766 -1.572,0.0863 -0.21316,-0.1769 -0.21033,-7.75645 0.003,-8.16909 0.13698,-0.26489 1.27009,-1.09394 6.69182,-4.89614 0.98811,-0.69296 3.63805,-2.55598 5.88875,-4.14006 2.25069,-1.58407 5.37223,-3.77977 6.93673,-4.87932 1.56451,-1.09954 3.19833,-2.2543 3.63072,-2.56614 l 0.78614,-0.56695 0.47571,-1.53593 c 0.26164,-0.84475 0.92631,-3.01809 1.47705,-4.82963 l 1.00135,-3.2937 0.10513,-2.34552 c 0.0578,-1.29003 0.12896,-2.97431 0.15808,-3.74284 0.0292,-0.76853 0.0803,-1.72296 0.11368,-2.12095 l 0.0607,-0.72361 h 1.97003 1.97001 l 0.0636,0.67371 c 0.0351,0.37054 0.0688,0.94319 0.075,1.27257 0.0109,0.57559 0.0144,0.58335 0.0904,0.19962 0.0435,-0.21959 0.13035,-1.25261 0.19314,-2.29562 0.16778,-2.7871 0.38658,-5.79172 0.60688,-8.33406 0.69853,-8.06119 1.07277,-10.57064 1.94552,-13.0453 0.33517,-0.95038 0.5485,-1.85596 0.91497,-3.884129 0.28005,-1.549825 0.50637,-2.570098 0.54665,-2.464335 0.066,0.173212 0.17634,0.759521 0.73509,3.905116 0.1628,0.916558 0.37428,1.721898 0.5897,2.245718 0.43088,1.04773 0.69809,2.02719 0.94455,3.46224 0.5917,3.44539 1.17727,9.69586 1.55681,16.61762 0.17286,3.15266 0.27411,4.50293 0.31433,4.19198 0.0142,-0.10979 0.0549,-0.72736 0.0905,-1.37237 l 0.0647,-1.17276 h 1.98444 c 1.9785,0 1.98456,6.8e-4 2.02793,0.22456 0.053,0.27397 0.36625,7.18045 0.36234,7.99035 -0.002,0.44799 0.16603,1.1163 0.74098,2.94437 0.40907,1.30068 1.09506,3.50867 1.52441,4.90665 l 0.78064,2.54178 1.05891,0.75192 c 0.5824,0.41356 2.28809,1.61592 3.79043,2.67192 1.50233,1.05599 3.76454,2.64708 5.02713,3.53575 1.26258,0.88867 3.89006,2.73738 5.83883,4.10824 1.94877,1.37086 4.30677,3.03276 5.23998,3.69309 0.93322,0.66034 1.96945,1.39301 2.30275,1.62817 0.33329,0.23515 0.65891,0.54373 0.72361,0.68572 0.0839,0.18422 0.11763,1.3831 0.11763,4.18527 0,3.42602 -0.0194,3.93454 -0.15209,3.98546 -0.12848,0.0493 -4.00612,-0.42643 -5.98617,-0.73442 -0.32937,-0.0512 -1.49714,-0.20905 -2.59504,-0.3507 -1.85681,-0.23957 -7.2559,-0.94752 -8.73331,-1.14514 -0.35681,-0.0477 -2.22075,-0.29383 -4.14207,-0.54689 -1.92134,-0.25306 -3.73292,-0.49738 -4.02575,-0.54294 -0.36973,-0.0575 -0.54255,-0.049 -0.56555,0.0281 -0.0182,0.061 -0.0583,0.78064 -0.0891,1.59913 l -0.056,1.48818 0.77128,0.83961 c 1.19185,1.29747 6.42417,7.19664 10.24849,11.55467 0.77076,0.87831 1.81578,2.05934 2.32227,2.62451 0.94028,1.0492 1.21552,1.56287 1.0891,2.03252 -0.078,0.29005 -2.71105,3.58213 -2.9979,3.74835 -0.11506,0.0667 -0.30354,0.12282 -0.41884,0.12477 -0.11531,0.002 -1.91188,-0.7211 -3.99236,-1.60675 -2.0805,-0.88567 -4.40272,-1.8702 -5.16048,-2.18786 -0.75777,-0.31764 -1.47639,-0.64256 -1.59695,-0.72202 -0.13327,-0.0878 -0.48859,-0.7463 -0.90643,-1.67976 -0.37797,-0.84441 -0.71924,-1.57114 -0.75835,-1.61494 -0.0391,-0.0439 -0.0994,0.29304 -0.13403,0.74856 -0.0346,0.45553 -0.11687,1.35596 -0.18282,2.00099 l -0.11989,1.17275 h -2.23025 c -2.61518,0 -2.28676,0.21883 -2.6171,-1.74376 -0.1983,-1.17818 -0.30655,-1.61604 -0.30708,-1.24219 -3.7e-4,0.37125 -0.53277,3.68607 -0.80609,5.02037 -0.29969,1.46294 -1.51942,6.42443 -1.66554,6.77487 -0.0471,0.11291 -0.3311,-0.8688 -0.79411,-2.74475 z"
       id="path13" /></g></svg>
