<?xml version="1.0" encoding="UTF-8" standalone="no"?>
<!-- Created with Inkscape (http://www.inkscape.org/) -->

<svg
   width="64.789375mm"
   height="78.869324mm"
   viewBox="0 0 64.789374 78.869324"
   version="1.1"
   id="svg1"
   xml:space="preserve"
   xmlns="http://www.w3.org/2000/svg"
   xmlns:svg="http://www.w3.org/2000/svg"><defs
     id="defs1" /><g
     id="layer1"
     transform="translate(-247.77927,-95.944958)"><path
       style="fill:#000000;stroke-width:0.345201"
       d="m 256.4132,173.69606 c -0.61857,-1.46379 -0.93278,-2.56615 -0.89691,-3.14664 l 0.028,-0.4534 3.65338,-3.59324 c 6.60848,-6.49971 8.45612,-8.34908 8.92302,-8.93134 0.25355,-0.31622 0.47195,-0.56282 0.48532,-0.54801 0.0134,0.0148 -0.0928,0.60234 -0.23593,1.30562 -0.31458,1.54563 -0.40783,2.28784 -0.29612,2.35688 0.0459,0.0283 0.1556,-0.30539 0.24381,-0.74166 0.0882,-0.43627 0.42251,-1.98448 0.74287,-3.44048 0.32036,-1.45599 0.56554,-2.66419 0.54485,-2.68488 -0.0207,-0.0207 -1.40504,0.23584 -3.07635,0.57005 -3.58971,0.71783 -4.98199,0.98969 -6.6399,1.29651 -1.23339,0.22826 -1.29221,0.22499 -1.39934,-0.0779 -0.0142,-0.04 -0.66215,0.071 -1.44,0.24679 -4.39898,0.99388 -6.38366,1.43336 -7.46698,1.65343 -1.13197,0.22995 -1.22683,0.23647 -1.43706,0.0987 -0.1238,-0.0811 -0.25657,-0.25999 -0.29504,-0.3975 -0.24955,-0.89191 0.19967,-5.14337 0.63345,-5.99511 0.42209,-0.82878 0.49424,-0.89351 6.19235,-5.55489 0.87909,-0.71915 2.62586,-2.15056 3.88171,-3.18092 2.8541,-2.34162 3.23185,-2.64962 5.98241,-4.87758 1.23073,-0.9969 2.64869,-2.16659 3.15103,-2.5993 0.50234,-0.43271 1.35093,-1.14469 1.88575,-1.58217 l 0.97239,-0.79542 0.33987,-1.44114 c 1.22654,-5.20096 2.36959,-8.94348 4.07148,-13.33071 1.41935,-3.65887 1.32778,-3.37804 1.94551,-5.96632 0.39744,-1.66527 0.50187,-2.27155 0.55063,-3.1967 0.18361,-3.48341 0.72352,-6.14509 1.78898,-8.819429 0.25893,-0.64993 0.50711,-1.28444 0.5515,-1.41003 0.0444,-0.12558 0.13112,-0.80374 0.19275,-1.50702 0.12467,-1.42277 0.16306,-1.37996 0.35398,0.39471 0.0662,0.61538 0.18997,1.24053 0.29255,1.47765 1.28169,2.962579 1.97062,5.959689 2.16734,9.428779 0.0811,1.43055 0.13906,1.80917 0.49612,3.24237 0.22234,0.89248 0.45345,1.86929 0.51357,2.1707 0.0601,0.3014 0.32778,1.10286 0.5948,1.78102 2.5034,6.35783 3.69347,10.10386 5.07089,15.96186 l 0.28483,1.21135 0.42601,0.35169 c 0.2343,0.19343 1.18636,0.98518 2.11568,1.75945 0.92933,0.77427 2.77529,2.29033 4.10214,3.36902 1.32685,1.07869 2.92977,2.38633 3.56205,2.90587 0.63227,0.51953 1.51949,1.2444 1.9716,1.61082 0.4521,0.36641 1.56182,1.27507 2.46603,2.01924 0.90421,0.74417 2.65098,2.17166 3.88171,3.1722 2.52929,2.05622 2.83036,2.32557 3.21058,2.8723 0.39783,0.57205 0.59968,1.25184 0.80212,2.70145 0.33616,2.40709 0.35327,3.72758 0.0536,4.13688 -0.095,0.12974 -0.22904,0.16642 -0.56554,0.15476 -0.38354,-0.0133 -3.48209,-0.67818 -8.46772,-1.81703 -1.4774,-0.33748 -1.51762,-0.33757 -1.63498,-0.004 -0.0333,0.0947 -3.32319,-0.52127 -8.9484,-1.67552 -0.99249,-0.20365 -1.86017,-0.37028 -1.92819,-0.37028 -0.15155,0 -0.15858,-0.0427 0.41266,2.5117 0.24715,1.10515 0.55721,2.52311 0.68904,3.15104 0.13183,0.62792 0.27425,1.18072 0.31651,1.22845 0.16885,0.19072 0.0552,-0.89473 -0.23856,-2.27809 -0.17059,-0.80336 -0.30025,-1.47055 -0.28814,-1.48266 0.0121,-0.0121 0.236,0.25945 0.49753,0.60346 0.39974,0.52581 3.49455,3.61169 11.31729,11.28461 l 1.30151,1.2766 v 0.50822 c 0,0.27952 -0.0844,0.81565 -0.18756,1.19139 -0.18237,0.66429 -1.03871,2.79085 -1.19148,2.95885 -0.0449,0.0493 -0.87361,-0.20182 -2.02005,-0.61217 -1.53363,-0.54895 -9.66769,-3.43408 -10.07442,-3.57337 -0.0512,-0.0175 -0.2339,-0.50946 -0.40608,-1.09319 -0.17219,-0.58373 -0.34049,-1.06133 -0.37401,-1.06133 -0.0335,0 -0.11066,0.25688 -0.17143,0.57084 -0.0608,0.31397 -0.1308,0.67123 -0.15563,0.79392 -0.0383,0.18905 -0.11266,0.0983 -0.48761,-0.59467 -0.43064,-0.79591 -0.44879,-0.86145 -0.6797,-2.45401 -0.3141,-2.16628 -0.36902,-2.22549 -0.50683,-0.54654 -0.15746,1.91808 -0.63592,4.39932 -0.8832,4.58014 -0.89579,0.65502 -4.39627,0.44564 -4.69148,-0.28061 -0.26213,-0.64487 -0.66056,-4.10456 -0.62193,-5.40045 0.0244,-0.8199 0.008,-0.96234 -0.10819,-0.93999 -0.10936,0.021 -0.14837,0.25651 -0.19333,1.16701 l -0.0563,1.14067 -0.8007,1.37002 c -0.44038,0.75351 -0.86715,1.43934 -0.94835,1.52408 -0.13716,0.1431 -0.20289,0.0628 -0.924,-1.12883 -1.16744,-1.92916 -1.0947,-1.75322 -1.10683,-2.67719 -0.0125,-0.95189 -0.0795,-1.34085 -0.24036,-1.39435 -0.0879,-0.0292 -0.11417,0.26977 -0.11417,1.29758 0,1.51751 -0.10378,2.64966 -0.38018,4.14728 l -0.19155,1.0379 -0.37631,0.16471 c -0.99051,0.43356 -2.90857,0.47954 -3.91552,0.0939 -0.28884,-0.11063 -0.52517,-0.21309 -0.52517,-0.2277 0,-0.0146 -0.10446,-0.53567 -0.23212,-1.15795 -0.32987,-1.60782 -0.49495,-2.84092 -0.49688,-3.7116 -0.001,-0.60384 -0.0285,-0.75351 -0.13693,-0.75351 -0.16456,0 -0.17542,0.0494 -0.40612,1.84922 -0.17854,1.39286 -0.1985,1.46509 -0.63269,2.29008 l -0.44833,0.85187 -0.0518,-0.43705 c -0.0285,-0.24037 -0.10149,-0.60302 -0.16227,-0.80589 -0.11334,-0.37829 -0.26161,-0.49408 -0.26766,-0.20902 -0.002,0.0879 -0.13623,0.56698 -0.29859,1.06459 -0.27802,0.85213 -0.31369,0.91142 -0.61311,1.01919 -4.10021,1.47573 -11.67032,4.1494 -11.74889,4.14957 -0.058,1.2e-4 -0.31826,-0.50326 -0.5783,-1.11862 z"
       id="path10" /></g></svg>
