<?xml version="1.0" encoding="UTF-8" standalone="no"?>
<!-- Created with Inkscape (http://www.inkscape.org/) -->

<svg
   width="75.362991mm"
   height="94.535667mm"
   viewBox="0 0 75.36299 94.535668"
   version="1.1"
   id="svg1"
   xml:space="preserve"
   xmlns="http://www.w3.org/2000/svg"
   xmlns:svg="http://www.w3.org/2000/svg"><defs
     id="defs1" /><g
     id="layer1"
     transform="translate(-158.65152,-95.944958)"><path
       style="fill:#000000;stroke-width:0.387533"
       d="m 196.09862,189.87207 c -0.0613,-0.35337 -0.20366,-1.15005 -0.3163,-1.77038 -0.27075,-1.49122 -0.58274,-3.82064 -0.78279,-5.84448 -0.18468,-1.86844 -0.34465,-2.8197 -0.47416,-2.8197 -0.049,0 -0.0897,0.74978 -0.0903,1.66618 -7.4e-4,0.91641 -0.0297,1.83922 -0.0647,2.0507 l -0.0636,0.3845 -2.47305,-0.001 c -2.52785,-0.001 -3.57336,-0.11927 -3.76632,-0.42376 -0.0483,-0.0762 -0.0908,-0.48463 -0.0945,-0.90759 -0.009,-1.02149 -0.25083,-4.08233 -0.32886,-4.16037 -0.0339,-0.0339 -0.19984,0.0406 -0.36878,0.16549 -0.23877,0.17652 -0.38631,0.21226 -0.66248,0.16045 l -0.3553,-0.0667 -0.23237,0.94044 c -0.12781,0.51724 -0.3082,1.01626 -0.40087,1.10893 -0.0927,0.0927 -1.45849,0.75053 -3.03517,1.46191 -6.70997,3.02749 -9.9912,4.49121 -10.06803,4.49121 -0.0854,0 -1.54172,-4.69653 -1.63553,-5.27461 -0.0563,-0.34732 0.27048,-0.73027 5.34654,-6.26433 0.62263,-0.6788 2.03179,-2.22137 3.13147,-3.42794 1.09969,-1.20657 2.83045,-3.09664 3.84615,-4.20016 2.371,-2.576 3.20398,-3.58274 3.68269,-4.45088 l 0.38675,-0.70138 -0.20042,-0.52903 c -0.13314,-0.3514 -0.26568,-0.53836 -0.39472,-0.55683 -0.10686,-0.0153 -4.73913,1.1057 -10.29395,2.49106 -5.55483,1.38536 -11.81842,2.94691 -13.9191,3.47012 l -3.81942,0.95129 v -4.63546 -4.63547 l 1.25605,-0.96602 c 1.48023,-1.13844 4.76696,-3.69151 5.71631,-4.44035 0.36657,-0.28914 1.28938,-1.00433 2.0507,-1.58931 0.76132,-0.58497 1.68413,-1.30124 2.05069,-1.5917 0.36657,-0.29046 1.21808,-0.95607 1.89226,-1.47913 l 1.22577,-0.95102 0.22352,0.28032 c 0.12294,0.15418 0.27168,0.26317 0.33053,0.2422 0.099,-0.0352 1.12267,-0.82086 7.24788,-5.56233 4.43607,-3.43392 4.97262,-3.87171 5.02072,-4.09651 0.0262,-0.12244 0.14331,-1.1685 0.26026,-2.32458 0.28171,-2.78458 0.46811,-4.0236 0.7173,-4.76786 0.21331,-0.63708 0.56526,-4.24199 0.8384,-8.58729 l 0.1273,-2.02506 h 2.16867 2.16867 l 0.0615,2.4352 c 0.0338,1.33936 0.10095,2.59669 0.14911,2.79407 0.0832,0.34104 0.0909,0.32576 0.15499,-0.30761 0.071,-0.70253 0.19868,-3.52054 0.38306,-8.45911 0.22503,-6.02722 0.39506,-8.13475 0.881,-10.91995 0.30711,-1.76026 0.89359,-4.08436 1.46192,-5.79322 0.46031,-1.384057 0.8636,-2.858122 1.04904,-3.834326 l 0.12456,-0.655749 0.37849,1.527294 c 0.20816,0.840012 0.61566,2.249064 0.90557,3.131231 0.9992,3.04056 1.64115,6.12054 1.96305,9.41855 0.15878,1.62669 0.39798,6.30755 0.51612,10.09968 0.0954,3.06099 0.26255,5.98938 0.34675,6.07359 0.0745,0.0745 0.16218,-1.1854 0.22822,-3.27952 l 0.0703,-2.23013 h 2.18846 2.18846 v 0.70021 c 0,0.664 0.39578,6.06997 0.61949,8.46177 0.0572,0.61215 0.16695,1.23505 0.24374,1.38422 0.19381,0.37643 0.42081,1.81054 0.72458,4.57768 0.14239,1.29706 0.28135,2.45715 0.3088,2.57797 0.0477,0.20991 1.67392,1.51056 6.97265,5.57676 1.12788,0.86553 2.77967,2.1417 3.67064,2.83593 0.89097,0.69423 1.65998,1.26224 1.70891,1.26224 0.0489,0 0.17854,-0.12297 0.28802,-0.27328 l 0.19907,-0.27327 2.29595,1.79227 c 1.26277,0.98575 4.16465,3.23855 6.44862,5.00624 2.28395,1.76767 4.4641,3.46236 4.84476,3.76596 l 0.69212,0.552 v 4.54129 c 0,2.49771 -0.0235,4.56478 -0.0522,4.59349 -0.0431,0.0431 -6.45549,-1.54053 -26.38386,-6.51607 l -1.77645,-0.44353 -0.13465,0.21531 c -0.0741,0.11842 -0.18966,0.38878 -0.25688,0.6008 -0.11481,0.36205 -0.099,0.42749 0.25998,1.07661 0.52009,0.94041 1.28798,1.84525 4.45872,5.25393 0.70817,0.76132 2.67052,2.90686 4.36076,4.76787 1.69025,1.861 4.0063,4.41064 5.14679,5.66587 1.18574,1.30501 2.07362,2.3666 2.07362,2.47931 0,0.23923 -1.52449,5.25421 -1.63124,5.36616 -0.0416,0.0436 -2.1947,-0.87271 -4.7847,-2.03627 -2.58999,-1.16355 -5.53961,-2.48564 -6.55471,-2.93798 -1.01509,-0.45234 -1.86114,-0.83578 -1.88009,-0.85208 -0.019,-0.0163 -0.14921,-0.48157 -0.28946,-1.03392 -0.14026,-0.55235 -0.27491,-1.03646 -0.29923,-1.0758 -0.0243,-0.0394 -0.18114,-0.0199 -0.34851,0.0434 -0.26332,0.0994 -0.34773,0.0827 -0.6269,-0.12366 -0.42574,-0.31476 -0.46496,-0.23565 -0.54853,1.10623 -0.14508,2.32947 -0.2849,3.75983 -0.37862,3.87324 -0.19073,0.23082 -1.41709,0.34299 -3.75012,0.34299 h -2.36272 l -0.0641,-0.32043 c -0.0352,-0.17623 -0.0641,-1.09904 -0.0641,-2.05069 0,-2.78683 -0.28547,-2.17414 -0.61607,1.32223 -0.25521,2.69897 -0.53563,4.67077 -0.92813,6.52619 -0.16604,0.78495 -0.31791,1.4432 -0.33749,1.46278 -0.0196,0.0196 -0.0858,-0.25353 -0.14711,-0.6069 z m -9.92491,-18.48355 c 0.0906,-0.95869 0.18619,-2.78125 0.21251,-4.05012 l 0.0479,-2.30703 -0.19875,1.17915 c -0.31693,1.88034 -0.50065,3.94628 -0.61849,6.95498 -0.10749,2.74407 -0.0926,3.09838 0.14207,3.39174 0.0875,0.10933 0.13199,-0.29003 0.18288,-1.64056 0.037,-0.98178 0.14136,-2.56946 0.23192,-3.52816 z m 20.83178,4.70572 c 0.0904,-0.4819 -0.12493,-5.20175 -0.31995,-7.01275 -0.0881,-0.81771 -0.24788,-2.06351 -0.35515,-2.76844 l -0.19505,-1.28168 0.0403,2.6659 c 0.0252,1.66706 0.11821,3.41504 0.24836,4.66534 0.11446,1.09968 0.20942,2.52416 0.211,3.16549 0.002,1.01538 0.0224,1.14987 0.15397,1.04068 0.0831,-0.069 0.18056,-0.2825 0.21659,-0.47454 z"
       id="path9" /></g></svg>
