<?xml version="1.0" encoding="UTF-8" standalone="no"?>
<!-- Created with Inkscape (http://www.inkscape.org/) -->

<svg
   width="105.71942mm"
   height="117.56529mm"
   viewBox="0 0 105.71942 117.56529"
   version="1.1"
   id="svg1"
   xml:space="preserve"
   xmlns="http://www.w3.org/2000/svg"
   xmlns:svg="http://www.w3.org/2000/svg"><defs
     id="defs1" /><g
     id="layer1"
     transform="translate(-3.3721788,-227.14115)"><path
       style="fill:#000000;stroke-width:0.47171"
       d="m 55.801329,344.42531 c -0.600452,-0.63916 -1.430845,-4.37134 -1.821898,-8.18849 -0.109002,-1.06398 -0.240104,-2.32764 -0.291336,-2.80815 l -0.09315,-0.87365 -0.409028,1.21036 c -0.224968,0.66571 -0.518414,1.34942 -0.652101,1.51938 -0.343235,0.43635 -1.27121,0.70751 -2.447602,0.7152 -1.823307,0.0119 -2.426431,-0.31655 -2.905216,-1.58219 -0.279431,-0.73867 -0.791439,-2.69442 -0.936924,-3.57883 -0.08648,-0.5257 -0.256746,-0.60927 -0.381424,-0.18721 -0.732696,2.4804 -1.247846,3.87523 -1.489781,4.03375 -0.401472,0.26306 -2.145528,0.52851 -11.055983,1.68275 -3.878967,0.50246 -3.798305,0.53345 -5.117775,-1.96581 -0.745301,-1.4117 -0.909889,-1.82665 -0.911965,-2.29916 -0.0033,-0.77297 -0.270549,-0.43605 6.222919,-7.84787 4.820776,-5.50256 5.657981,-6.45991 6.378206,-7.29351 0.418788,-0.48472 1.584,-1.808 2.589354,-2.94061 l 1.827922,-2.05931 3.77e-4,-4.03342 c 3.49e-4,-3.78308 -0.01316,-4.02937 -0.218038,-3.96823 -0.120126,0.0359 -1.060856,0.2383 -2.090508,0.44989 -1.029652,0.21159 -2.602213,0.54872 -3.49458,0.74919 -0.892366,0.20045 -2.689579,0.59625 -3.993808,0.87953 -1.304225,0.28329 -3.354171,0.73183 -4.555435,0.99677 -1.201261,0.26493 -3.532024,0.76656 -5.17947,1.11474 -1.647445,0.34818 -3.613144,0.77583 -4.368223,0.95036 -0.75508,0.17452 -2.945435,0.64936 -4.867453,1.0552 -1.922022,0.40584 -4.926737,1.04663 -6.6771468,1.42396 l -3.1825671,0.68607 -0.499224,-0.35323 c -0.686569,-0.4858 -1.249899,-0.76208 -1.553882,-0.76208 -0.222321,0 -0.255487,-0.0776 -0.253341,-0.59282 0.007,-1.68707 0.426081,-3.0319 1.099979,-3.53014 0.193373,-0.14296 1.498701,-0.80884 2.900735,-1.47973 1.4020341,-0.67089 5.5257889,-2.65337 9.1638959,-4.40551 3.638112,-1.75214 9.226322,-4.43825 12.418243,-5.96912 3.191926,-1.53088 5.922756,-2.86051 6.06851,-2.95474 0.145753,-0.0942 0.836166,-1.23153 1.534244,-2.52735 0.698083,-1.29581 1.355665,-2.3892 1.46129,-2.42973 0.10563,-0.0405 0.573231,-0.0737 1.03912,-0.0737 h 0.847072 l 2.369104,-2.83934 2.369109,-2.83935 0.403491,-1.87209 c 0.386792,-1.79461 2.235422,-9.91032 2.998445,-13.16352 0.215585,-0.91916 0.445511,-1.61532 0.561523,-1.70015 0.10805,-0.079 0.757155,-0.1834 1.442455,-0.23199 l 1.245997,-0.0883 4.2e-4,-0.52043 c 0.0028,-3.44276 0.279803,-15.74433 0.381301,-16.93247 0.165273,-1.93474 0.467955,-3.55344 1.190218,-6.36513 1.01592,-3.95485 1.53048,-5.34545 2.401454,-6.48993 0.325598,-0.42785 0.336456,-0.50283 0.528451,-3.649 0.176722,-2.89594 0.251917,-3.49556 0.417562,-3.32977 0.02859,0.0286 0.141169,1.50168 0.250209,3.2735 l 0.198259,3.22149 0.509635,0.75048 c 0.872229,1.28442 1.151901,2.05991 2.161321,5.99305 1.190256,4.63775 1.2668,5.4733 1.456031,15.8934 0.07978,4.39318 0.164848,8.00943 0.189037,8.0361 0.0242,0.0267 0.536995,0.10123 1.139556,0.16569 1.504881,0.16098 1.673682,0.26024 1.867371,1.09813 0.08704,0.37653 0.388217,1.66744 0.66928,2.8687 0.751603,3.21236 2.202917,9.54914 2.626097,11.46617 l 0.368396,1.66886 1.779085,2.07533 c 0.978493,1.14144 2.051298,2.39828 2.384004,2.79297 l 0.604924,0.71764 h 0.901546 c 0.702196,0 0.944041,0.0483 1.093734,0.21842 0.105705,0.12013 0.709899,1.17318 1.342655,2.34012 0.632756,1.16694 1.212623,2.19781 1.288597,2.29084 0.07597,0.093 0.926678,0.5483 1.890456,1.01173 1.983017,0.95353 9.548347,4.58418 13.858552,6.6508 2.641154,1.26637 7.07166,3.39816 11.731808,5.64493 1.02965,0.49641 2.19006,1.0528 2.57867,1.23641 0.8523,0.40269 1.5398,1.12808 1.72659,1.82176 0.21508,0.79873 0.34846,2.64381 0.19408,2.68465 -0.95571,0.25278 -1.23827,0.37557 -1.73211,0.75264 l -0.57762,0.44105 -4.71419,-1.01048 c -2.592806,-0.55576 -6.371002,-1.36939 -8.395988,-1.80808 -2.024987,-0.43868 -5.675575,-1.22322 -8.112423,-1.74343 -2.436841,-0.52022 -5.553887,-1.1937 -6.926756,-1.49664 -1.372872,-0.30293 -4.181015,-0.92161 -6.240324,-1.37484 -2.059305,-0.45323 -3.870559,-0.85528 -4.025006,-0.89346 l -0.280814,-0.0694 v 4.05679 4.0568 l 1.970325,2.22825 c 1.083681,1.22554 2.919508,3.32343 4.079617,4.66199 1.160108,1.33854 3.241101,3.72547 4.624427,5.30427 6.682601,7.6269 6.299307,7.14254 6.299307,7.96042 0,0.45362 -1.631813,3.77517 -2.020634,4.11298 -0.583275,0.50676 -0.958457,0.50064 -5.356553,-0.0874 -8.296438,-1.10931 -9.362544,-1.27801 -9.709157,-1.53639 -0.260487,-0.19417 -0.443675,-0.63127 -0.932673,-2.22545 -0.334687,-1.0911 -0.629543,-2.00721 -0.655238,-2.03582 -0.109771,-0.1222 -0.199617,0.16384 -0.472312,1.50369 -0.315881,1.55204 -0.837025,3.00993 -1.230714,3.44289 -0.425171,0.46759 -1.331547,0.68847 -2.623818,0.63942 -1.9209,-0.0729 -2.188761,-0.29746 -2.950251,-2.47318 l -0.356367,-1.01821 -0.07507,0.72599 c -0.570731,5.51899 -0.829195,7.28549 -1.369335,9.35873 -0.296649,1.13865 -0.474149,1.56928 -0.801534,1.94461 -0.247317,0.28353 -0.303347,0.27651 -0.638214,-0.0799 z"
       id="path11" /></g></svg>
