<?xml version="1.0" encoding="UTF-8" standalone="no"?>
<!-- Created with Inkscape (http://www.inkscape.org/) -->

<svg
   width="87.493034mm"
   height="117.98092mm"
   viewBox="0 0 87.493033 117.98092"
   version="1.1"
   id="svg1"
   xml:space="preserve"
   xmlns="http://www.w3.org/2000/svg"
   xmlns:svg="http://www.w3.org/2000/svg"><defs
     id="defs1" /><g
     id="layer1"
     transform="translate(-238.17597,-227.14115)"><path
       style="fill:#000000;stroke-width:0.491469"
       d="m 281.59548,344.74319 c -0.42286,-0.59386 -1.15232,-2.21333 -1.35123,-2.99987 -0.1749,-0.69159 -0.19747,-0.71729 -0.721,-0.82083 -0.94994,-0.18786 -0.91158,0.0566 -1.12909,-7.19379 -0.10701,-3.567 -0.21339,-6.544 -0.23639,-6.6155 -0.023,-0.0715 -0.11404,0.30883 -0.20228,0.84522 -0.0882,0.53639 -0.32718,1.53115 -0.53096,2.21058 -0.21472,0.71587 -0.40835,1.73917 -0.46049,2.43349 l -0.09,1.19815 -0.47123,0.15684 c -0.6073,0.20215 -3.56122,0.20899 -4.24222,0.009 l -0.52014,-0.15211 -0.62309,-2.89589 c -0.34271,-1.59273 -0.62404,-3.1592 -0.62517,-3.48104 -9.8e-4,-0.32183 -0.0453,-0.81921 -0.0983,-1.10529 -0.0915,-0.49431 -0.14006,-0.38454 -0.97926,2.21059 -0.48569,1.5019 -0.92936,2.77927 -0.98596,2.83862 -0.10706,0.11225 -3.21661,0.40655 -9.10657,0.86186 -1.89525,0.14652 -3.74588,0.3013 -4.1125,0.34396 l -0.66658,0.0775 -0.9649,-1.21579 c -0.53068,-0.66868 -1.41394,-1.81049 -1.9628,-2.53735 l -0.99792,-1.32155 1.65413,-1.5505 c 3.2653,-3.0607 7.24037,-6.74367 8.1051,-7.5095 0.48452,-0.42911 2.02515,-1.84812 3.42361,-3.15335 1.39846,-1.30522 2.60142,-2.37313 2.67323,-2.37313 0.0781,0 0.13574,0.53589 0.14343,1.33286 0.007,0.73308 0.0573,1.65469 0.11172,2.04805 0.0598,0.43236 0.10611,-0.94318 0.11718,-3.47843 0.011,-2.52402 -0.03,-4.19362 -0.10308,-4.19362 -0.40455,0 -16.04817,3.34295 -23.20078,4.95787 -2.85032,0.64354 -5.21199,1.14047 -5.24817,1.10429 -0.0362,-0.0362 -0.0155,-3.78282 0.0459,-8.32588 0.10193,-7.527 0.13152,-8.27981 0.33402,-8.48215 0.20955,-0.20941 0.23001,-0.20155 0.35908,0.1379 0.0753,0.19798 0.19151,1.41425 0.25831,2.70281 0.0668,1.28855 0.14528,2.36664 0.17439,2.39577 0.0291,0.0291 0.8369,-0.55041 1.79508,-1.28784 3.2546,-2.5048 8.36016,-6.41427 13.05514,-9.99671 2.57468,-1.96458 5.85156,-4.47205 7.28193,-5.57218 1.43039,-1.10013 3.85878,-2.95988 5.39644,-4.13279 1.53766,-1.17291 2.86889,-2.22615 2.95829,-2.34053 0.0894,-0.11438 0.16323,-0.41622 0.16408,-0.67075 0.003,-0.86767 0.58037,-2.53553 1.70209,-4.91599 0.67379,-1.4299 1.40333,-3.57567 1.84593,-5.42941 0.50121,-2.09917 1.85981,-8.35895 2.17312,-10.01265 0.27526,-1.45286 0.63788,-3.22575 1.81378,-8.86754 0.41234,-1.97829 0.65613,-3.47452 0.65683,-4.03107 0.005,-3.87003 1.04652,-9.66977 2.37766,-13.23835 0.32013,-0.85823 0.64515,-1.73596 0.72225,-1.95052 0.0771,-0.21455 0.24007,-1.13794 0.36214,-2.05197 0.12207,-0.91403 0.26147,-1.61622 0.30978,-1.56042 0.0483,0.0558 0.19121,0.8329 0.31758,1.72689 0.15382,1.08818 0.37139,1.99077 0.65827,2.73073 1.60084,4.12926 2.66318,9.44326 2.66318,13.32174 0,1.19688 0.0881,1.89594 0.46227,3.6685 0.25424,1.20442 1.12891,5.40821 1.94371,9.34176 2.58254,12.46768 2.83815,13.44386 4.39233,16.77446 0.9957,2.1338 1.36888,3.20493 1.50744,4.32678 0.0555,0.44872 0.15494,0.86504 0.22116,0.92517 0.0662,0.0601 0.8806,0.68575 1.80976,1.39031 2.13866,1.62172 2.74357,2.0843 10.35881,7.92161 3.45219,2.6462 7.04358,5.39643 7.98086,6.11162 0.93728,0.7152 3.03762,2.32437 4.6674,3.57595 5.01625,3.8522 5.58915,4.28193 5.64035,4.23074 0.0272,-0.0272 0.1036,-1.10551 0.16961,-2.39613 0.11796,-2.30531 0.25291,-3.09683 0.50179,-2.94303 0.34442,0.21287 0.39372,1.33083 0.39444,8.943 3.9e-4,4.34479 -0.0158,7.8996 -0.036,7.8996 -0.0202,0 -1.73175,-0.38281 -3.80351,-0.8507 -7.47556,-1.68829 -23.83407,-5.13089 -24.38093,-5.13089 -0.25013,0 -0.25618,0.10298 -0.24617,4.19362 0.005,2.30649 0.038,4.12569 0.072,4.04268 0.034,-0.083 0.10246,-1.03939 0.15228,-2.12527 l 0.0905,-1.97435 0.85524,0.75992 c 0.47039,0.41794 2.08117,1.90096 3.57951,3.29559 1.49834,1.39461 4.24406,3.93934 6.1016,5.65491 1.85755,1.71559 3.82577,3.54941 4.37384,4.07516 l 0.99649,0.95591 -1.95823,2.53465 -1.95825,2.53467 -0.7287,-0.0789 c -0.40078,-0.0434 -2.51343,-0.22351 -4.69475,-0.40021 -6.27168,-0.50808 -8.37186,-0.70947 -8.46782,-0.81196 -0.0491,-0.0524 -0.48431,-1.31034 -0.9671,-2.79528 -0.48279,-1.48495 -0.89868,-2.67902 -0.9242,-2.6535 -0.0255,0.0255 -0.10544,0.66957 -0.17761,1.43123 -0.11317,1.19446 -1.16688,6.37164 -1.33001,6.53477 -0.0316,0.0316 -0.56064,0.12241 -1.17566,0.2018 -1.45327,0.1876 -3.70556,-0.0187 -3.95693,-0.36254 -0.0991,-0.13555 -0.16524,-0.61929 -0.16525,-1.20888 -10e-6,-0.69548 -0.0971,-1.28714 -0.33198,-2.02319 -0.18258,-0.57215 -0.43665,-1.59617 -0.56461,-2.27561 l -0.23264,-1.23533 -0.0854,1.69045 c -0.047,0.92975 -0.14978,3.88479 -0.22842,6.56675 -0.0917,3.12775 -0.19703,4.99286 -0.29371,5.20138 -0.10708,0.23095 -0.31617,0.36505 -0.72207,0.46308 -0.55351,0.13369 -0.57692,0.16007 -0.75017,0.84523 -0.30208,1.19466 -1.42079,3.37293 -1.73226,3.37293 -0.0617,0 -0.23402,-0.1709 -0.38277,-0.37979 z"
       id="path12" /></g></svg>
