<?xml version="1.0" encoding="UTF-8" standalone="no"?>
<!-- Created with Inkscape (http://www.inkscape.org/) -->

<svg
   width="96.639191mm"
   height="99.582558mm"
   viewBox="0 0 96.639189 99.582559"
   version="1.1"
   id="svg1"
   xml:space="preserve"
   xmlns="http://www.w3.org/2000/svg"
   xmlns:svg="http://www.w3.org/2000/svg"><defs
     id="defs1" /><g
     id="layer1"
     transform="translate(-122.94093,-227.14115)"><path
       style="fill:#000000;stroke-width:0.412328"
       d="m 170.86593,326.36831 c -0.17125,-0.19555 -0.47146,-0.60577 -0.66719,-0.91159 -0.36995,-0.5781 -0.55005,-1.39482 -1.51869,-6.88771 -0.16133,-0.91503 -0.32628,-1.66371 -0.3665,-1.66371 -0.0402,0 -0.10572,0.39145 -0.14573,0.86988 -0.0896,1.0748 -0.1373,1.20293 -0.44686,1.20293 -0.13564,0 -1.27173,-0.14628 -2.52479,-0.32498 -1.25306,-0.17877 -4.58332,-0.64836 -7.40057,-1.0436 -2.81725,-0.39525 -5.16145,-0.74283 -5.2093,-0.77241 -0.0479,-0.0296 -0.087,-1.17401 -0.087,-2.54318 0,-1.85882 0.0345,-2.51787 0.13637,-2.60183 0.0751,-0.0618 1.26551,-0.61217 2.64557,-1.22296 4.88473,-2.1619 5.70439,-2.53989 8.70034,-4.0122 l 3.02739,-1.48776 v -0.41196 c 0,-0.7893 -0.76847,-6.13018 -0.90113,-6.26283 -0.0329,-0.0329 -0.25966,0.0424 -0.50422,0.16721 -0.85014,0.43371 -1.80929,0.59164 -3.5805,0.58951 -1.13659,-0.001 -1.7086,-0.0437 -1.81787,-0.13436 -0.0877,-0.0727 -0.19206,-0.38757 -0.23194,-0.69958 -0.0398,-0.31199 -0.16923,-0.83307 -0.28742,-1.15797 -0.32474,-0.89276 -0.51666,-2.5409 -0.63813,-5.48039 -0.0604,-1.46107 -0.11031,-2.69617 -0.11086,-2.7446 -4e-4,-0.0485 -0.20931,-0.0731 -0.46387,-0.0545 l -0.46285,0.0336 -0.13362,1.07829 c -0.19257,1.55336 -0.39385,2.16146 -0.84713,2.55944 -0.4096,0.35964 -0.97598,0.52021 -1.43154,0.40588 -0.81118,-0.20359 -1.29298,-0.92316 -1.47005,-2.19555 -0.19379,-1.39255 -0.18042,-1.3572 -0.51237,-1.35634 -0.32588,8.2e-4 -6.97637,0.59098 -11.6366,1.03255 -3.21622,0.30474 -3.11169,0.31704 -3.11479,-0.36626 l -0.002,-0.36933 -1.33641,0.078 c -0.73502,0.0429 -3.25104,0.23386 -5.59113,0.42429 l -4.25472,0.34622 -0.0317,0.89964 c -0.0275,0.77977 -0.0576,0.89965 -0.22688,0.89965 -0.23083,0 -3.87994,-1.21008 -4.25595,-1.41132 -0.25235,-0.13509 -0.25722,-0.16409 -0.18207,-1.08198 0.0426,-0.51877 0.1661,-2.2172 0.27467,-3.7743 0.18134,-2.60019 0.21578,-2.846 0.42291,-3.01372 0.12407,-0.1004 0.77283,-0.31839 1.44176,-0.48434 1.38272,-0.34304 1.31444,-0.37065 1.52386,0.61625 0.0747,0.35199 0.19049,0.63973 0.25728,0.63944 0.0668,-3e-4 0.58784,-0.21427 1.15787,-0.47553 3.45847,-1.58508 5.36623,-2.45493 9.70948,-4.42716 7.29631,-3.31317 8.5832,-3.89554 12.38095,-5.60274 l 3.48968,-1.56873 0.13766,-1.51749 c 0.20801,-2.29428 0.80209,-4.3328 1.42273,-4.88202 0.22352,-0.19781 0.23173,-0.19404 0.55849,0.25705 0.40754,0.56259 0.89946,1.81691 1.26635,3.22896 0.15216,0.5856 0.29545,1.08354 0.31843,1.10652 0.11453,0.11453 2.0187,-1.03824 3.14486,-1.90402 l 0.6273,-0.48225 4.3e-4,-1.71188 c 4e-4,-1.5494 0.22796,-4.8897 0.39309,-5.77212 0.13968,-0.74621 0.93957,-1.17199 2.45231,-1.3053 1.07409,-0.0947 1.42873,0.0626 1.97329,0.87455 0.54642,0.8148 0.51441,0.77559 0.57977,0.71023 0.0294,-0.0294 0.12591,-3.70722 0.21467,-8.17305 0.16886,-8.49709 0.20355,-9.3552 0.44343,-10.95619 0.58279,-3.88983 1.41265,-6.96419 2.50304,-9.27309 0.37266,-0.78908 0.50071,-1.22817 0.6522,-2.23646 0.46035,-3.0636 0.55354,-3.24115 0.44378,-0.84548 l -0.0787,1.71826 h 0.55695 0.55696 l 0.0128,-1.55461 0.0129,-1.55461 0.2672,1.69096 c 0.23656,1.49711 0.32794,1.82231 0.79705,2.83649 1.15094,2.48823 2.04713,5.91813 2.56548,9.81857 0.16335,1.22977 0.27603,4.90271 0.44236,14.42784 0.0395,2.26509 0.10297,4.11734 0.14096,4.11609 0.038,-0.001 0.27661,-0.31816 0.53021,-0.70424 0.39622,-0.60317 0.52666,-0.71961 0.92692,-0.82739 0.89416,-0.24077 2.8305,0.13895 3.28832,0.64483 0.10792,0.11931 0.24206,0.62514 0.33915,1.27959 0.19649,1.32422 0.40532,4.68204 0.36819,5.92 -0.0314,1.04615 -0.14096,0.89586 1.43476,1.96602 1.01513,0.68942 2.17469,1.36974 2.22977,1.30827 0.0193,-0.0215 0.19443,-0.6184 0.38938,-1.32657 0.42476,-1.543 1.259,-3.29441 1.56925,-3.29441 0.65597,0 1.39525,2.40804 1.66978,5.43895 l 0.0875,0.96605 1.74553,0.79692 c 0.96003,0.43831 3.2674,1.48302 5.12748,2.32157 9.89792,4.46218 12.01992,5.4243 15.96097,7.23694 1.93826,0.89147 3.6393,1.64977 3.78009,1.6851 0.23869,0.0598 0.26717,0.0147 0.42197,-0.66349 0.0912,-0.40028 0.19597,-0.75775 0.23261,-0.79439 0.12665,-0.12664 2.5436,0.53153 2.73715,0.74542 0.15051,0.16629 0.2151,0.62401 0.3337,2.36428 0.081,1.18694 0.19744,2.76215 0.25897,3.50044 0.15711,1.88621 0.16152,1.8447 -0.21066,2.03713 -0.50684,0.26208 -3.82588,1.36616 -4.10696,1.36616 -0.24135,0 -0.25423,-0.0408 -0.28448,-0.90005 l -0.0317,-0.90003 -4.5122,-0.34846 c -2.48169,-0.19164 -4.99743,-0.38958 -5.59052,-0.43985 l -1.07834,-0.0914 -0.0707,0.53232 -0.0707,0.53232 -0.55728,-0.0655 c -0.30652,-0.036 -1.88281,-0.18635 -3.50287,-0.33414 -7.94747,-0.72497 -10.27778,-0.93089 -10.5341,-0.93087 -0.26908,4e-5 -0.28427,0.0363 -0.42147,1.00917 -0.17712,1.25539 -0.3641,1.73382 -0.8418,2.15326 -0.31589,0.27735 -0.4649,0.32867 -0.95443,0.32867 -1.19416,0 -1.7303,-0.71171 -1.98258,-2.63181 -0.0887,-0.67484 -0.18079,-1.24655 -0.20471,-1.27048 -0.0239,-0.0239 -0.23848,-0.0696 -0.47679,-0.10169 l -0.43331,-0.0582 -0.0692,1.73099 c -0.16335,4.08896 -0.39602,6.18358 -0.76652,6.90006 -0.0938,0.18116 -0.17033,0.52823 -0.17033,0.7712 0,0.71291 -0.21552,0.84215 -1.55677,0.93355 -1.76734,0.12041 -2.95557,-0.0844 -4.51493,-0.77834 -0.0723,-0.0321 -0.15363,0.0749 -0.19102,0.25162 -0.13435,0.63584 -0.5182,3.40661 -0.66928,4.83039 -0.14683,1.3831 -0.14463,1.4867 0.0329,1.62045 0.6462,0.4867 5.63062,2.85783 11.04469,5.25402 1.65007,0.73031 3.06644,1.39245 3.1475,1.47143 0.11581,0.1127 0.14518,0.66603 0.13674,2.57745 -0.006,1.33863 -0.0477,2.47106 -0.0932,2.51651 -0.0455,0.0455 -1.38342,0.25986 -2.97326,0.47646 -1.58983,0.21662 -4.91227,0.68527 -7.38319,1.04147 -2.47092,0.35617 -4.61542,0.6476 -4.76556,0.6476 -0.32616,0 -0.35705,-0.0875 -0.45573,-1.29147 -0.0409,-0.50031 -0.11031,-0.8685 -0.15399,-0.81821 -0.0437,0.0503 -0.191,0.75419 -0.32735,1.56421 -0.13638,0.81004 -0.46105,2.61428 -0.7215,4.00944 -0.42212,2.26124 -0.51134,2.59289 -0.82175,3.05467 -0.37885,0.56361 -0.96842,1.22713 -1.09035,1.22713 -0.042,0 -0.21647,-0.16006 -0.3877,-0.35557 z"
       id="path15" /></g></svg>
