<?xml version="1.0" encoding="UTF-8" standalone="no"?>
<!-- Created with Inkscape (http://www.inkscape.org/) -->

<svg
   width="91.478867mm"
   height="102.01218mm"
   viewBox="0 0 91.478865 102.01218"
   version="1.1"
   id="svg1"
   xml:space="preserve"
   xmlns="http://www.w3.org/2000/svg"
   xmlns:svg="http://www.w3.org/2000/svg"><defs
     id="defs1" /><g
     id="layer1"
     transform="translate(-3.3721953,-394.14235)"><path
       style="fill:#000000;stroke-width:0.802728"
       d="m 45.941602,495.68475 c -0.84952,-0.74745 -1.573958,-3.14696 -1.705172,-5.64791 -0.06149,-1.17147 -0.207296,-2.38127 -0.324093,-2.68845 -0.116789,-0.30719 -0.212346,-0.89095 -0.212346,-1.29725 0,-0.72311 -0.01686,-0.73741 -0.796459,-0.67644 -0.711586,0.0556 -0.802889,0.006 -0.85684,-0.46868 -0.03323,-0.29203 0.181834,-1.24062 0.47788,-2.10798 0.756178,-2.2155 0.743174,-2.27312 -0.576784,-2.55559 -0.613277,-0.13125 -1.470984,-0.48497 -1.906022,-0.78605 -0.761677,-0.52715 -1.863879,-2.09197 -1.863879,-2.64619 0,-0.35219 1.604742,-3.03633 2.4611,-4.11652 1.404141,-1.77116 2.204517,-3.97864 2.208932,-6.09235 0.0016,-0.66407 -0.09216,-1.45643 -0.207883,-1.76079 -0.340926,-0.89671 -31.918803,-36.23028 -33.0321872,-36.96084 -1.309747,-0.85942 -1.858862,-1.6247 -3.171828,-4.42052 -2.356321,-5.01755 -3.212872,-8.01968 -3.043055,-10.66572 0.150801,-2.3498 0.806887,-3.50189 3.185844,-5.59437 2.198376,-1.93366 3.8105832,-2.80279 7.1744002,-3.8677 1.458501,-0.46173 2.5975,-0.97691 3.292021,-1.48904 2.5811,-1.90322 6.098278,-3.11226 9.653883,-3.31855 2.085367,-0.12099 2.275277,-0.1708 3.125422,-0.81973 1.811645,-1.38285 5.076446,-2.23961 8.671938,-2.27571 1.284951,-0.0129 2.709063,0.0876 3.164692,0.22342 0.730835,0.21778 0.900227,0.19572 1.438095,-0.18727 1.39466,-0.99308 2.875541,-1.33659 5.698054,-1.3217 3.063926,0.0161 5.056354,0.45575 7.645987,1.68695 1.554828,0.73921 1.661463,0.75856 4.460159,0.80934 2.47758,0.045 3.112587,0.13251 4.672545,0.64432 2.016333,0.66155 3.08075,1.1608 4.396952,2.06233 0.803193,0.55015 1.100853,0.61965 2.973441,0.69428 3.861934,0.15391 7.092434,1.47271 9.63921,3.93506 1.294744,1.25182 1.762116,1.55121 3.345016,2.14274 3.379141,1.26278 4.392762,1.81597 6.126021,3.3433 1.289708,1.13647 1.815298,1.76747 2.181738,2.61928 0.62564,1.45434 0.77116,3.18004 0.44083,5.22774 -0.91689,5.68373 -2.837972,9.21278 -5.904988,10.84749 -1.079862,0.57556 -3.502416,3.05202 -17.904918,18.30339 -9.4823,10.04118 -16.818546,17.97976 -17.033283,18.4318 -0.310504,0.65364 -0.365459,1.24466 -0.310825,3.34269 0.07602,2.91804 0.139595,3.08771 2.397067,6.39414 1.458116,2.13563 1.920985,3.33626 1.605818,4.16522 -0.290467,0.76399 -3.019093,2.08976 -4.409956,2.14268 l -1.084382,0.0413 0.10767,1.59398 c 0.08264,1.22331 -0.004,2.03822 -0.371735,3.5044 -0.322866,1.28657 -0.466859,2.44193 -0.440963,3.53797 0.03789,1.60266 -0.311699,3.43427 -0.968965,5.07695 -0.36065,0.90134 -1.052586,1.26135 -2.122502,1.10432 -0.365177,-0.0536 -0.728709,0.007 -0.807842,0.13535 -0.233674,0.37809 -0.905301,0.26746 -1.487808,-0.24506 z m 8.335337,-18.46718 c 0.140181,-0.14019 0.254866,-0.46488 0.254866,-0.72155 0,-0.52033 -1.459087,-3.48375 -1.715277,-3.48375 -0.22824,0 -0.578607,1.17258 -0.747268,2.50092 -0.115866,0.9125 -0.07184,1.19821 0.23731,1.53982 0.425824,0.47052 1.568933,0.56599 1.970369,0.16456 z m -10.72298,-0.68766 c 0.368396,-0.2793 0.369728,-0.38175 0.03107,-2.38262 -0.194653,-1.14992 -0.385727,-2.12455 -0.424619,-2.16584 -0.114068,-0.12111 -1.796666,3.32616 -1.796666,3.68096 0,0.18125 0.185847,0.3233 0.422981,0.3233 0.232639,0 0.542348,0.19115 0.688251,0.42478 0.309292,0.49524 0.5484,0.52171 1.079012,0.11942 z m 4.741386,-3.47124 c 0.568115,0.0498 1.188528,0.16113 1.378694,0.24728 0.286807,0.12994 0.401621,-0.0908 0.673489,-1.29462 0.517471,-2.29145 0.901127,-5.76538 0.663005,-6.0035 -0.273593,-0.2736 -3.647653,-0.52609 -4.612163,-0.34514 -0.732787,0.13747 -0.762776,0.18009 -0.900059,1.27887 -0.125828,1.00708 0.149757,4.71377 0.469203,6.31104 l 0.117222,0.58611 0.588833,-0.43535 c 0.459193,-0.3395 0.816238,-0.41538 1.621776,-0.34469 z m 4.200043,-13.58617 c 0.409512,-3.87154 3.126482,-42.08493 3.05402,-42.95378 -0.06053,-0.72562 -0.08675,-0.74511 -1.220926,-0.90723 -1.134078,-0.16211 -2.912177,-0.87075 -3.693385,-1.47197 -0.34571,-0.26605 -0.518763,-0.24138 -1.457064,0.20767 -0.585622,0.28026 -1.72027,0.66341 -2.521441,0.85144 l -1.456679,0.34186 -0.113225,0.85989 c -0.06229,0.47295 -0.208725,9.79615 -0.325442,20.71823 -0.116709,10.92208 -0.270094,20.57513 -0.340847,21.45124 l -0.128645,1.59291 3.155437,0.0126 c 1.857368,0.007 3.37385,0.11109 3.686401,0.25203 1.05749,0.47685 1.222603,0.36107 1.361796,-0.95488 z M 33.093189,445.66725 C 27.626795,434.7692 20.724351,421.33056 20.4234,420.99991 c -0.04174,-0.0458 -0.197655,0.0162 -0.346497,0.13798 -0.896118,0.7329 -2.947394,1.5383 -3.917932,1.5383 -1.00907,0 -1.055925,0.0272 -1.323707,0.76772 -0.361734,1.00036 -1.58396,2.34047 -2.613716,2.86582 -0.559004,0.28517 -0.764935,0.5034 -0.651654,0.69055 0.227268,0.37546 27.914867,31.78196 28.018595,31.78196 0.04567,0 -2.877179,-5.90175 -6.4953,-13.11499 z m 29.342046,1.64601 c 6.990422,-11.43225 8.805431,-14.47771 12.529047,-21.02299 l 2.716665,-4.77527 -0.930202,-0.47274 c -1.14119,-0.57997 -2.221221,-1.63296 -2.596761,-2.53174 l -0.281662,-0.67411 -0.909234,0.3172 c -0.822917,0.28708 -2.261823,0.29354 -4.080308,0.0183 -0.355375,-0.0538 -0.5768,0.44757 -1.661053,3.76093 -1.860395,5.68522 -11.203205,35.27464 -11.203205,35.48146 0,0.36239 0.498952,-0.42304 6.416713,-10.10104 z m 5.277802,0.1062 c 4.599271,-4.90618 10.64408,-11.3349 13.432911,-14.28606 l 5.070609,-5.36574 -0.655291,-0.74634 c -0.723202,-0.82368 -1.371525,-2.01268 -1.587556,-2.9115 -0.13367,-0.55615 -0.200915,-0.58407 -1.406372,-0.58407 -0.696286,0 -1.654679,-0.15553 -2.12975,-0.34562 -1.050747,-0.42042 -0.628496,-0.89559 -4.17625,4.69958 -4.457245,7.02952 -17.408141,28.30422 -17.638308,28.97481 -0.149998,0.43699 -0.688484,0.99593 9.090007,-9.43506 z m -24.542116,-17.01601 0.162986,-14.89212 -1.801114,-0.0945 c -1.455643,-0.0764 -1.98493,-0.20225 -2.759426,-0.65614 l -0.958321,-0.5616 -0.275537,0.51484 c -0.546072,1.02035 -2.560575,2.01542 -4.080171,2.01542 -0.694184,0 -0.813357,0.0617 -0.718699,0.37169 0.06237,0.20442 2.267258,9.02119 4.899661,19.59284 2.632403,10.57163 4.857686,19.46009 4.945071,19.75213 0.202046,0.67526 0.379554,-7.21916 0.58555,-26.04252 z m -6.702926,8.52046 c -2.34041,-9.4619 -4.507327,-18.21792 -4.815374,-19.45782 l -0.560095,-2.25435 -1.713938,0.0242 c -0.942659,0.0133 -2.072339,-0.0518 -2.510388,-0.14464 -0.729158,-0.15465 -0.796459,-0.12965 -0.796459,0.29582 0,0.27214 -0.423896,0.88865 -1.022836,1.48759 -0.770218,0.77021 -1.236755,1.05704 -1.88898,1.16133 l -0.866136,0.13851 0.66201,1.51627 c 1.135556,2.60086 6.511515,13.29703 10.529515,20.94982 2.115936,4.03007 4.586934,8.78083 5.491103,10.55723 0.904169,1.77641 1.667098,3.16224 1.695394,3.07964 0.02834,-0.0826 -1.863413,-7.89176 -4.203816,-17.35367 z m 21.424809,6.90263 c 5.648422,-17.85306 8.745147,-27.80031 8.745147,-28.09105 0,-0.15602 -0.338302,-0.40601 -0.751779,-0.55553 -0.413478,-0.14951 -1.38396,-0.69576 -2.156626,-1.21389 l -1.404847,-0.94206 -0.945822,0.45787 c -0.564928,0.27347 -1.536631,0.50013 -2.412897,0.56283 -1.27857,0.0915 -1.479324,0.16267 -1.56235,0.55408 -0.113618,0.53559 -0.626658,7.40346 -1.916257,25.65256 -1.053565,14.90885 -0.988062,13.87463 -0.870984,13.75214 0.04656,-0.0486 1.520905,-4.6283 3.276415,-10.17695 z"
       id="path14" /></g></svg>
